<?xml version="1.0" encoding="utf-8"?>
<svg version="1.1" xmlns:xlink="http://www.w3.org/1999/xlink" width="11px" height="6px" xmlns="http://www.w3.org/2000/svg">
  <g transform="matrix(1 0 0 1 -392 -497 )">
    <path d="M 1.74929426099201 0.892275346235795  C 1.74929426099201 0.399632146661931  1.45355559365916 0.104046226917614  1.00994756767805 0.104046253551136  C 0.56633956667878 0.104046253551136  0.122731540697675 0.419337890625001  0.122731540697675 0.892275346235795  C 0.122731540697675 1.36521280184659  0.566339541696948 1.68050446555398  1.00994756767805 1.68050446555398  C 1.45355559365916 1.68050446555398  1.74929426099201 1.36521282848011  1.74929426099201 0.892275346235795  Z M 7.75648609420421 5.30635837180398  C 7.75648609420421 4.99106670809659  7.46074742687136 4.67577507102273  7.01713940089026 4.67577509765625  C 6.72140073355741 4.67577509765625  6.44414572356468 5.01077247869318  6.44414572356468 5.30635837180398  C 6.44414572356468 5.64135575284091  6.73988439089753 5.93694167258523  7.01713940089026 5.93694167258523  C 7.46074740188953 5.93694167258523  7.75648609420421 5.62165003551136  7.75648609420421 5.30635837180398  Z M 4.22610566860465 0.892275346235795  C 4.22610569358648 1.36521280184659  4.66971366960392 1.68050446555398  5.1133216706032 1.68050446555398  C 5.55692967160247 1.68050446555398  5.85266836391715 1.34550708451705  5.85266836391715 0.892275346235795  C 5.85266836391715 0.419337890625001  5.5569296965843 0.104046226917614  5.1133216706032 0.104046253551136  C 4.6697136446221 0.10404628018466  4.22610564362282 0.419337890625001  4.22610566860465 0.892275346235795  Z M 10.972644170149 5.30635837180398  C 10.972644170149 4.99106670809659  10.6769055028161 4.67577507102273  10.233297476835 4.67577509765625  C 9.93755880950218 4.67577509765625  9.66030379950945 5.01077247869318  9.66030379950945 5.30635837180398  C 9.66030379950945 5.64135575284091  9.9560424668423 5.93694167258523  10.233297476835 5.93694167258523  C 10.6769054778343 5.93694167258523  10.972644170149 5.62165003551136  10.972644170149 5.30635837180398  Z " fill-rule="nonzero" fill="#28c445" stroke="none" transform="matrix(1 0 0 1 392 497 )" />
  </g>
</svg>