<?xml version="1.0" encoding="utf-8"?>
<svg version="1.1" xmlns:xlink="http://www.w3.org/1999/xlink" width="24px" height="24px" xmlns="http://www.w3.org/2000/svg">
  <g transform="matrix(1 0 0 1 -384 -489 )">
    <path d="M 23.930635828125 12.0346820859375  C 23.930635828125 5.4277456640625  18.5722543359375 0.0693641718750002  11.9653179140625 0.069364171875  C 5.3583814921875 0.069364171875  0 5.4277456640625  0 12.0346820859375  C 0 18.6416185078125  5.3583814921875 24  11.9653179140625 24  C 18.5722543359375 24  23.930635828125 18.6416185078125  23.930635828125 12.0346820859375  Z M 10.231213875 15.069364171875  C 10.05780346875 15.086705203125  9.86705203125 15.1040462578125  9.693641625 15.104046234375  C 9 15.104046234375  8.44508671875 14.9653179140625  7.78612715625 14.8092485625  L 5.8786127109375 15.780346828125  L 6.4161849609375 14.09826590625  C 5.046242765625 13.127167640625  4.2138728203125 11.8612716796875  4.21387284375 10.3526011640625  C 4.21387284375 7.6994219765625  6.693641625 5.618497125  9.693641625 5.6184971015625  C 12.3815028984375 5.6184971015625  14.7572254453125 7.2832369921875  15.2254335234375 9.52023121875  C 15.0520231171875 9.5028901875  14.8786127109375 9.4855491328125  14.7052023046875 9.4855491328125  C 12.104046234375 9.52023121875  10.05780346875 11.47976878125  10.05780346875 13.9075144453125  C 10.05780346875 14.306358375  10.127167640625 14.6878612734375  10.231213875 15.069364171875  Z M 19.7167630078125 13.855491328125  C 19.7167630078125 15.104046234375  18.9017341171875 16.2138728203125  17.8092485625 17.046242765625  L 18.2254335234375 18.433526015625  L 16.7341040390625 17.6011560703125  C 16.1965317890625 17.739884390625  15.641618484375 17.8786127109375  15.086705203125 17.8786127109375  C 12.4682081015625 17.8786127109375  10.40462428125 16.0751445  10.40462428125 13.838150296875  C 10.38728325 11.618497125  12.450867046875 9.8150289140625  15.0520231171875 9.815028890625  C 17.5317918984375 9.815028890625  19.7167630078125 11.6358381328125  19.7167630078125 13.855491328125  Z " fill-rule="nonzero" fill="#28c445" stroke="none" transform="matrix(1 0 0 1 384 489 )" />
  </g>
</svg>