<?xml version="1.0" encoding="utf-8"?>
<svg version="1.1" xmlns:xlink="http://www.w3.org/1999/xlink" width="24px" height="24px" xmlns="http://www.w3.org/2000/svg">
  <g transform="matrix(1 0 0 1 -428 -489 )">
    <path d="M 24 12  C 24 5.3724444375  18.6271111171875 0  12 0  C 5.3728888828125 0  0 5.3724444375  0 12  C 0 18.6275555625  5.3728888828125 24  12 24  C 18.6271111171875 24  24 18.6275555625  24 12  Z M 18.207999984375 13.44  C 18.2080000078125 16.091111109375  14.9088888984375 18.24  10.8 18.24  C 6.6911111015625 18.24  3.36 16.091111109375  3.36 13.4404444453125  C 3.36 10.78977778125  8.3488888828125 6.6040000078125  10.257333328125 6.6040000078125  C 11.0573333203125 6.6040000078125  12.627999984375 7.2004444453125  11.529333328125 9.090222234375  C 11.4524444296875 9.222222234375  14.0071111171875 7.9911111328125  15.403555546875 8.8008888984375  C 16.8004444453125 9.6106666875  15.403555546875 10.9115555625  15.403555546875 11.0560000078125  C 15.403555546875 11.200444453125  18.207999984375 11.200444453125  18.207999984375 13.44  Z M 16.7795555625 9.729333328125  C 16.7795555625 9.7288888828125  17.109333328125 8.97422221875  16.6471111171875 8.424888890625  C 16.1844444609375 7.8755555625  15.357333328125 8.004  15.357333328125 8.004  C 15.1151111015625 8.0062222265625  14.9266666640625 7.8373333359375  14.8933333359375 7.6093333359375  C 14.89022221875 7.6324444453125  14.88 7.6537777734375  14.88 7.677333328125  L 14.88 7.543555546875  C 14.88 7.5671111015625  14.89022221875 7.58711109375  14.8933333359375 7.6093333359375  C 14.9266666640625 7.375111125  15.1168888828125 7.1688888984375  15.3559999921875 7.137333328125  C 15.3559999921875 7.137333328125  16.3573333359375 6.8635555546875  17.224888875 7.6444444453125  C 18.0924444375 8.4253333359375  17.7373333125 9.7164444375  17.7373333125 9.7164444375  C 17.6999999765625 9.9791111015625  17.4431111015625 10.188888890625  17.1764444296875 10.188888890625  L 17.1288888984375 10.188888890625  C 16.86177778125 10.188888890625  16.7062222265625 9.983111109375  16.7795555625 9.729333328125  Z M 18.84400003125 6.0831111328125  C 20.43422221875 7.5862222265625  19.936444453125 10.084444453125  19.936444453125 10.084444453125  C 19.903111125 10.449777796875  19.5844444453125 10.747111125  19.2213333515625 10.788  C 19.2480000234375 10.7911111171875  19.2737778046875 10.7959999921875  19.3017777890625 10.7959999921875  L 19.1382222421875 10.7959999921875  C 19.16622225 10.7959999921875  19.1937777890625 10.79111109375  19.2213333515625 10.788  C 18.86933334375 10.7471111015625  18.6324444609375 10.449333328125  18.683555578125 10.0835555625  C 18.683555578125 10.0835555625  19.075111125 8.5693333359375  18.121333359375 7.2  C 17.1671111484375 5.8306666640625  15.1164444609375 6.0671111015625  15.1164444609375 6.0671111015625  C 14.7520000078125 6.06666665625  14.4462222421875 5.7986666484375  14.4075555703125 5.440888875  C 14.4048888984375 5.4662222109375  14.4000000234375 5.49066665625  14.4000000234375 5.5164444375  L 14.4000000234375 5.3662222265625  C 14.4000000234375 5.3920000078125  14.404888921875 5.4160000078125  14.4075555703125 5.4408888984375  C 14.4462222421875 5.083111125  14.747555578125 4.797777796875  15.1186666875 4.795111125  C 15.1186666875 4.795111125  17.253777796875 4.5795555703125  18.84400003125 6.0831111328125  Z " fill-rule="nonzero" fill="#f56467" stroke="none" transform="matrix(1 0 0 1 428 489 )" />
  </g>
</svg>