<?xml version="1.0" encoding="utf-8"?>
<svg version="1.1" xmlns:xlink="http://www.w3.org/1999/xlink" width="11px" height="7px" xmlns="http://www.w3.org/2000/svg">
  <g transform="matrix(1 0 0 1 -433 -499 )">
    <path d="M 10.31377778125 3.0115555625  C 10.07377778125 1.3053333359375  7.7511111015625 0.220888882812499  5.1257777734375 0.589777789062499  C 2.500888890625 0.958666671874999  0.5675555546875 2.6408888984375  0.807111109375 4.3475555703125  C 1.0466666640625 6.0542222421875  3.3693333203125 7.138666671875  5.994666671875 6.76933334375  C 8.62 6.4004444609375  10.5533333359375 4.718222234375  10.31377778125 3.0115555625  Z M 7.878666671875 3.399555546875  C 8.1311111171875 4.7004444453125  7.0706666640625 6.00133334375  5.509333328125 6.3048888828125  C 3.947555546875 6.6084444453125  2.476888890625 5.799555546875  2.224 4.498666671875  C 1.971111109375 3.197333328125  3.0320000078125 1.8968888984375  4.59333334375 1.5933333359375  C 6.155111125 1.289333328125  7.62577778125 2.0982222265625  7.878666671875 3.399555546875  Z " fill-rule="nonzero" fill="#f56467" stroke="none" transform="matrix(1 0 0 1 433 499 )" />
  </g>
</svg>