<?xml version="1.0" encoding="utf-8"?>
<svg version="1.1" xmlns:xlink="http://www.w3.org/1999/xlink" width="10px" height="12px" xmlns="http://www.w3.org/2000/svg">
  <g transform="matrix(1 0 0 1 -918 -495 )">
    <path d="M 9.70424107142857 5.4225  C 9.90141369047619 6.0925  10 6.925  10 7.92  C 10 8.75  9.76376488095238 9.8775  9.29129464285714 11.3025  C 9.28013392857143 11.3375  9.26060267857143 11.3975  9.23270089285714 11.4825  C 9.20479910714286 11.5675  9.1796875 11.6425  9.15736607142857 11.7075  C 9.13504464285714 11.7725  9.1108630952381 11.8275  9.08482142857143 11.8725  C 9.04017857142857 11.9575  8.98809523809524 12  8.92857142857143 12  C 8.87276785714286 12  8.82905505952381 11.975  8.79743303571429 11.925  C 8.76581101190476 11.875  8.75 11.8125  8.75 11.7375  C 8.75 11.6925  8.75465029761905 11.62625  8.76395089285714 11.53875  C 8.77325148809524 11.45125  8.77790178571429 11.3925  8.77790178571429 11.3625  C 8.79650297619048 11.0225  8.80580357142857 10.715  8.80580357142857 10.44  C 8.80580357142857 9.935  8.77325148809524 9.4825  8.70814732142857 9.0825  C 8.64304315476191 8.6825  8.55282738095238 8.33625  8.4375 8.04375  C 8.32217261904762 7.75125  8.17336309523809 7.49875  7.99107142857143 7.28625  C 7.80877976190476 7.07375  7.61253720238095 6.9  7.40234375 6.765  C 7.19215029761905 6.63  6.94475446428571 6.52375  6.66015625 6.44625  C 6.37555803571429 6.36875  6.08909970238095 6.315  5.80078125 6.285  C 5.51246279761905 6.255  5.18601190476191 6.24  4.82142857142857 6.24  L 3.57142857142857 6.24  L 3.57142857142857 8.16  C 3.57142857142857 8.29  3.53608630952381 8.4025  3.46540178571429 8.4975  C 3.39471726190476 8.5925  3.31101190476191 8.64  3.21428571428571 8.64  C 3.11755952380952 8.64  3.03385416666667 8.5925  2.96316964285714 8.4975  L 0.106026785714286 4.6575  C 0.0353422619047619 4.5625  0 4.45  0 4.32  C 0 4.19  0.0353422619047619 4.0775  0.106026785714286 3.9825  L 2.96316964285714 0.1425  C 3.03385416666667 0.0474999999999994  3.11755952380952 0  3.21428571428571 0  C 3.31101190476191 0  3.39471726190476 0.0474999999999994  3.46540178571429 0.1425  C 3.53608630952381 0.237499999999998  3.57142857142857 0.349999999999999  3.57142857142857 0.48  L 3.57142857142857 2.4  L 4.82142857142857 2.4  C 7.47395833333333 2.4  9.1015625 3.4075  9.70424107142857 5.4225  Z " fill-rule="nonzero" fill="#74e637" stroke="none" transform="matrix(1 0 0 1 918 495 )" />
  </g>
</svg>