<?xml version="1.0" encoding="utf-8"?>
<svg version="1.1" xmlns:xlink="http://www.w3.org/1999/xlink" width="24px" height="24px" xmlns="http://www.w3.org/2000/svg">
  <g transform="matrix(1 0 0 1 -472 -489 )">
    <path d="M 24 12  C 24 5.3724444375  18.6275555625 0  12 0  C 5.3724444375 0  0 5.3724444375  0 12  C 0 18.6275555625  5.3724444375 24  12 24  C 18.6275555625 24  24 18.6275555625  24 12  Z M 18.99155559375 13.129333359375  C 19.4164444453125 14.7364444453125  18.991555546875 15.494666671875  18.7795555546875 15.676444453125  C 18.2702222109375 16.1133333515625  17.6088888984375 14.2386666796875  17.513777765625 14.527111125  C 17.282222203125 15.22844446875  17.1737777578125 15.6973333359375  16.49111109375 16.46088890625  C 16.4546666484375 16.5017778046875  17.2799999765625 16.8000000234375  17.513777765625 17.4368889140625  C 17.7377777578125 18.0466666875  18.1733333203125 19.0133333671875  15.3226666640625 19.31688890625  C 13.6502222109375 19.4946666796875  12.441333328125 18.4257777890625  12.3208888828125 18.4360000078125  C 12.0973333359375 18.4555555546875  12.196888875 18.4360000078125  11.956888875 18.4360000078125  C 11.760444421875 18.4360000078125  11.74755553125 18.450222234375  11.56266665625 18.4360000078125  C 11.511999984375 18.432  10.956 19.31688890625  8.4697777734375 19.31688890625  C 6.542666671875 19.31688890625  6.043555546875 18.104000015625  6.431111109375 17.4368889140625  C 6.818666671875 16.7697778125  7.4653333359375 16.5755555859375  7.3742222109375 16.4697778125  C 6.9253333125 15.9497778046875  6.615999984375 15.3937778203125  6.431111109375 14.89111115625  C 6.3853333359375 14.7657778125  6.347111109375 14.6440000546875  6.3168888984375 14.5271111484375  C 6.2466666796875 14.2586666953125  5.7102222421875 16.102222265625  5.1342222421875 15.6764444765625  C 4.5582222421875 15.2506666875  4.6097778046875 14.166666703125  4.9826666953125 13.129333359375  C 5.358666703125 12.083555578125  6.3062222578125 11.07644446875  6.316888921875 10.8542222578125  C 6.354666703125 10.0271111484375  6.2351111484375 9.8897778046875  6.316888921875 9.67244446874999  C 6.498666703125 9.1857778125  6.7200000234375 9.37244446875  6.7200000234375 9.1200000234375  C 6.7200000234375 5.9386666875  9.0840000234375 3.3600000234375  12.0000000234375 3.3600000234375  C 14.9160000234375 3.3600000234375  17.2800000234375 5.9391111328125  17.2800000234375 9.1200000234375  C 17.2800000234375 9.2417778046875  17.596888921875 9.1200000234375  17.74844446875 9.67244446874999  C 17.7795555703125 9.7866666796875  17.800888921875 10.227111140625  17.76400003125 10.8542222578125  C 17.7466666875 11.15555559375  18.567111140625 11.52222225  18.99155559375 13.129333359375  Z " fill-rule="nonzero" fill="#68a5e1" stroke="none" transform="matrix(1 0 0 1 472 489 )" />
  </g>
</svg>