<?xml version="1.0" encoding="utf-8"?>
<svg version="1.1" xmlns:xlink="http://www.w3.org/1999/xlink" width="16px" height="18px" xmlns="http://www.w3.org/2000/svg">
  <g transform="matrix(1 0 0 1 0 1 )">
    <path d="M 2.46875 15.0252403846154  C 2.60069444444444 14.8882211538462  2.66666666666667 14.7259615384615  2.66666666666667 14.5384615384615  C 2.66666666666667 14.3509615384615  2.60069444444444 14.1887019230769  2.46875 14.0516826923077  C 2.33680555555556 13.9146634615385  2.18055555555556 13.8461538461538  2 13.8461538461538  C 1.81944444444444 13.8461538461538  1.66319444444444 13.9146634615385  1.53125 14.0516826923077  C 1.39930555555556 14.1887019230769  1.33333333333333 14.3509615384615  1.33333333333333 14.5384615384615  C 1.33333333333333 14.7259615384615  1.39930555555556 14.8882211538462  1.53125 15.0252403846154  C 1.66319444444444 15.1622596153846  1.81944444444444 15.2307692307692  2 15.2307692307692  C 2.18055555555556 15.2307692307692  2.33680555555556 15.1622596153846  2.46875 15.0252403846154  Z M 14.4427083333333 9.18389423076923  C 14.5920138888889 8.85216346153846  14.6666666666667 8.56009615384615  14.6666666666667 8.30769230769231  C 14.6666666666667 7.93990384615384  14.53125 7.6171875  14.2604166666667 7.33954326923077  C 13.9895833333333 7.06189903846154  13.6805555555556 6.92307692307692  13.3333333333333 6.92307692307692  L 9.66666666666667 6.92307692307692  C 9.66666666666667 6.50480769230769  9.83333333333333 5.9296875  10.1666666666667 5.19771634615385  C 10.5 4.46574519230769  10.6666666666667 3.88701923076923  10.6666666666667 3.46153846153846  C 10.6666666666667 2.75480769230769  10.5555555555556 2.23197115384615  10.3333333333333 1.89302884615385  C 10.1111111111111 1.55408653846154  9.66666666666667 1.38461538461538  9 1.38461538461538  C 8.81944444444444 1.57211538461538  8.6875 1.87860576923077  8.60416666666667 2.30408653846154  C 8.52083333333333 2.72956730769231  8.41493055555556 3.18209134615384  8.28645833333333 3.66165865384615  C 8.15798611111111 4.14122596153846  7.95138888888889 4.53605769230769  7.66666666666667 4.84615384615385  C 7.51388888888889 5.01201923076923  7.24652777777778 5.34014423076923  6.86458333333333 5.83052884615385  C 6.83680555555556 5.86658653846154  6.75694444444445 5.97475961538461  6.625 6.15504807692308  C 6.49305555555556 6.33533653846154  6.38368055555556 6.48317307692308  6.296875 6.59855769230769  C 6.21006944444445 6.71394230769231  6.09027777777778 6.8671875  5.9375 7.05829326923077  C 5.78472222222222 7.24939903846154  5.64583333333333 7.40805288461538  5.52083333333333 7.53425480769231  C 5.39583333333333 7.66045673076923  5.26215277777778 7.78846153846154  5.11979166666667 7.91826923076923  C 4.97743055555556 8.04807692307692  4.83854166666667 8.14543269230769  4.703125 8.21033653846154  C 4.56770833333333 8.27524038461538  4.44444444444445 8.30769230769231  4.33333333333333 8.30769230769231  L 4 8.30769230769231  L 4 15.2307692307692  L 4.33333333333333 15.2307692307692  C 4.42361111111111 15.2307692307692  4.53298611111111 15.2415865384615  4.66145833333333 15.2632211538462  C 4.78993055555556 15.2848557692308  4.90451388888889 15.3082932692308  5.00520833333333 15.3335336538462  C 5.10590277777778 15.3587740384615  5.23784722222222 15.3984375  5.40104166666667 15.4525240384615  C 5.56423611111111 15.5066105769231  5.68576388888889 15.5480769230769  5.765625 15.5769230769231  C 5.84548611111111 15.6057692307692  5.96875 15.6508413461538  6.13541666666667 15.7121394230769  C 6.30208333333333 15.7734375  6.40277777777778 15.8112980769231  6.4375 15.8257211538462  C 7.90277777777778 16.3521634615385  9.09027777777778 16.6153846153846  10 16.6153846153846  L 11.2604166666667 16.6153846153846  C 12.59375 16.6153846153846  13.2604166666667 16.0132211538462  13.2604166666667 14.8088942307692  C 13.2604166666667 14.6213942307692  13.2430555555556 14.4194711538462  13.2083333333333 14.203125  C 13.4166666666667 14.0877403846154  13.5815972222222 13.8984375  13.703125 13.6352163461538  C 13.8246527777778 13.3719951923077  13.8854166666667 13.1069711538462  13.8854166666667 12.8401442307692  C 13.8854166666667 12.5733173076923  13.8229166666667 12.3245192307692  13.6979166666667 12.09375  C 14.0659722222222 11.7331730769231  14.25 11.3040865384615  14.25 10.8064903846154  C 14.25 10.6262019230769  14.2152777777778 10.4260817307692  14.1458333333333 10.2061298076923  C 14.0763888888889 9.98617788461539  13.9895833333333 9.81490384615385  13.8854166666667 9.69230769230769  C 14.1076388888889 9.68509615384615  14.2934027777778 9.515625  14.4427083333333 9.18389423076923  Z M 15.2083333333333 6.36057692307692  C 15.7361111111111 6.90865384615384  16 7.55408653846154  16 8.296875  C 16 8.93870192307692  15.8298611111111 9.52644230769231  15.4895833333333 10.0600961538462  C 15.5520833333333 10.2980769230769  15.5833333333333 10.546875  15.5833333333333 10.8064903846154  C 15.5833333333333 11.3617788461538  15.4513888888889 11.8810096153846  15.1875 12.3641826923077  C 15.2083333333333 12.515625  15.21875 12.6706730769231  15.21875 12.8293269230769  C 15.21875 13.5576923076923  15.0104166666667 14.1995192307692  14.59375 14.7548076923077  C 14.6006944444444 15.7572115384615  14.3055555555556 16.5486778846154  13.7083333333333 17.1292067307692  C 13.1111111111111 17.7097355769231  12.3229166666667 18  11.34375 18  L 10.96875 18  L 10 18  C 9.33333333333333 18  8.67534722222222 17.9188701923077  8.02604166666667 17.7566105769231  C 7.37673611111111 17.5943509615385  6.625 17.3581730769231  5.77083333333333 17.0480769230769  C 4.96527777777778 16.7596153846154  4.48611111111111 16.6153846153846  4.33333333333333 16.6153846153846  L 1.33333333333333 16.6153846153846  C 0.965277777777778 16.6153846153846  0.651041666666667 16.4801682692308  0.390625 16.2097355769231  C 0.130208333333333 15.9393028846154  0 15.6129807692308  0 15.2307692307692  L 0 8.30769230769231  C 0 7.92548076923077  0.130208333333333 7.59915865384615  0.390625 7.32872596153846  C 0.651041666666667 7.05829326923077  0.965277777777778 6.92307692307692  1.33333333333333 6.92307692307692  L 4.1875 6.92307692307692  C 4.4375 6.75  4.91319444444445 6.19110576923077  5.61458333333333 5.24639423076923  C 6.01736111111111 4.70552884615385  6.38888888888889 4.24399038461538  6.72916666666667 3.86177884615385  C 6.89583333333333 3.68149038461538  7.01909722222222 3.37319711538461  7.09895833333333 2.93689903846154  C 7.17881944444445 2.50060096153846  7.28472222222222 2.04447115384615  7.41666666666667 1.56850961538462  C 7.54861111111111 1.09254807692308  7.76388888888889 0.703125  8.0625 0.400240384615384  C 8.33333333333333 0.133413461538463  8.64583333333333 0  9 0  C 9.58333333333333 0  10.1076388888889 0.117187500000001  10.5729166666667 0.3515625  C 11.0381944444444 0.585937499999999  11.3923611111111 0.951923076923078  11.6354166666667 1.44951923076923  C 11.8784722222222 1.94711538461538  12 2.61778846153846  12 3.46153846153846  C 12 4.13221153846154  11.8333333333333 4.82451923076923  11.5 5.53846153846154  L 13.3333333333333 5.53846153846154  C 14.0555555555556 5.53846153846154  14.6805555555556 5.8125  15.2083333333333 6.36057692307692  Z " fill-rule="nonzero" fill="#74e637" stroke="none" transform="matrix(1 0 0 1 0 -1 )" />
  </g>
</svg>