<?xml version="1.0" encoding="utf-8"?>
<svg version="1.1" xmlns:xlink="http://www.w3.org/1999/xlink" width="17px" height="18px" xmlns="http://www.w3.org/2000/svg">
  <g>
    <path d="M 2.518125 14.783203125  C 2.65270833333333 14.638671875  2.72 14.4609375  2.72 14.25  C 2.72 14.046875  2.65270833333333 13.87109375  2.518125 13.72265625  C 2.38354166666667 13.57421875  2.22416666666667 13.5  2.04 13.5  C 1.84875 13.5  1.68760416666667 13.57421875  1.5565625 13.72265625  C 1.42552083333333 13.87109375  1.36 14.046875  1.36 14.25  C 1.36 14.4609375  1.42552083333333 14.638671875  1.5565625 14.783203125  C 1.68760416666667 14.927734375  1.84875 15  2.04 15  C 2.22416666666667 15  2.38354166666667 14.927734375  2.518125 14.783203125  Z M 4.218125 7.72265625  C 4.35270833333333 7.87109375  4.42 8.046875  4.42 8.25  L 4.42 15.75  C 4.42 15.953125  4.35270833333333 16.12890625  4.218125 16.27734375  C 4.08354166666667 16.42578125  3.92416666666667 16.5  3.74 16.5  L 0.68 16.5  C 0.495833333333333 16.5  0.336458333333333 16.42578125  0.201875 16.27734375  C 0.0672916666666667 16.12890625  0 15.953125  0 15.75  L 0 8.25  C 0 8.046875  0.0672916666666667 7.87109375  0.201875 7.72265625  C 0.336458333333333 7.57421875  0.495833333333333 7.5  0.68 7.5  L 3.74 7.5  C 3.92416666666667 7.5  4.08354166666667 7.57421875  4.218125 7.72265625  Z M 16.394375 6.66796875  C 16.798125 7.11328125  17 7.640625  17 8.25  C 17 8.921875  16.8052083333333 9.50390625  16.415625 9.99609375  C 16.521875 10.33984375  16.575 10.63671875  16.575 10.88671875  C 16.59625 11.48046875  16.4439583333333 12.015625  16.118125 12.4921875  C 16.2385416666667 12.9296875  16.2385416666667 13.38671875  16.118125 13.86328125  C 16.011875 14.30859375  15.820625 14.67578125  15.544375 14.96484375  C 15.608125 15.83984375  15.4345833333333 16.546875  15.02375 17.0859375  C 14.5704166666667 17.6796875  13.8727083333333 17.984375  12.930625 18  L 12.548125 18  L 11.740625 18  L 11.56 18  C 11.0925 18  10.5825 17.939453125  10.03 17.818359375  C 9.4775 17.697265625  9.0471875 17.583984375  8.7390625 17.478515625  C 8.4309375 17.373046875  8.00416666666667 17.21875  7.45875 17.015625  C 6.5875 16.6796875  6.02791666666667 16.5078125  5.78 16.5  C 5.59583333333333 16.4921875  5.43645833333333 16.416015625  5.301875 16.271484375  C 5.16729166666667 16.126953125  5.1 15.953125  5.1 15.75  L 5.1 8.23828125  C 5.1 8.04296875  5.16375 7.873046875  5.29125 7.728515625  C 5.41875 7.583984375  5.57104166666667 7.50390625  5.748125 7.48828125  C 5.918125 7.47265625  6.18729166666667 7.2421875  6.555625 6.796875  C 6.92395833333333 6.3515625  7.28166666666667 5.87890625  7.62875 5.37890625  C 8.11041666666667 4.69921875  8.468125 4.23046875  8.701875 3.97265625  C 8.829375 3.83203125  8.93916666666667 3.64453125  9.03125 3.41015625  C 9.12333333333333 3.17578125  9.1853125 2.986328125  9.2171875 2.841796875  C 9.2490625 2.697265625  9.296875 2.4609375  9.360625 2.1328125  C 9.41020833333333 1.828125  9.45447916666667 1.58984375  9.4934375 1.41796875  C 9.53239583333333 1.24609375  9.60145833333333 1.04296875  9.700625 0.80859375  C 9.79979166666667 0.574218749999999  9.92020833333333 0.37890625  10.061875 0.222656249999999  C 10.1964583333333 0.0742187499999991  10.3558333333333 0  10.54 0  C 10.8658333333333 0  11.1580208333333 0.0410156250000007  11.4165625 0.123046875  C 11.6751041666667 0.205078124999999  11.8876041666667 0.306640624999998  12.0540625 0.427734375000001  C 12.2205208333333 0.548828124999999  12.3621875 0.707031249999999  12.4790625 0.902343750000001  C 12.5959375 1.09765625  12.6809375 1.2734375  12.7340625 1.4296875  C 12.7871875 1.5859375  12.8296875 1.78125  12.8615625 2.015625  C 12.8934375 2.25  12.9111458333333 2.42578125  12.9146875 2.54296875  C 12.9182291666667 2.66015625  12.92 2.8125  12.92 3  C 12.92 3.296875  12.8863541666667 3.59375  12.8190625 3.890625  C 12.7517708333333 4.1875  12.6844791666667 4.421875  12.6171875 4.59375  C 12.5498958333333 4.765625  12.4525 4.984375  12.325 5.25  C 12.30375 5.296875  12.2683333333333 5.3671875  12.21875 5.4609375  C 12.1691666666667 5.5546875  12.1302083333333 5.640625  12.101875 5.71875  C 12.0735416666667 5.796875  12.0452083333333 5.890625  12.016875 6  L 14.96 6  C 15.5125 6  15.990625 6.22265625  16.394375 6.66796875  Z " fill-rule="nonzero" fill="#74e637" stroke="none" />
  </g>
</svg>