<?xml version="1.0" encoding="utf-8"?>
<svg version="1.1" xmlns:xlink="http://www.w3.org/1999/xlink" width="30px" height="30px" xmlns="http://www.w3.org/2000/svg">
  <g transform="matrix(1 0 0 1 -1715 -20 )">
    <path d="M 7.30978260869566 14.38275  L 7.30978260869565 11.38275  L 20.0815217391304 11.38275  L 20.0815217391304 14.38275  L 7.30978260869566 14.38275  Z M 7.30978260869566 9.38275  L 7.30978260869565 6.38275  L 20.0815217391304 6.38275  L 20.0815217391304 9.38275  L 7.30978260869566 9.38275  Z M 7.30978260869565 19.38275  L 7.30978260869565 16.38275  L 14.6127717391304 16.38275  L 14.6127717391304 19.38275  L 7.30978260869565 19.38275  Z M 30 21.163  C 28.8875 19.45725  28.9054347826087 19.425  28.9054347826087 19.425  C 28.9054347826087 19.425  25.0649456521739 20.41575  24.3497282608696 17.029  L 22.1247282608696 17.029  C 22.1247282608696 17.029  21.5111413043478 20.421  17.5872282608696 19.41675  C 16.4527173913043 21.15625  16.4141304347826 21.21075  16.4130434782609 21.21175  C 16.4146739130435 21.21275  19.4845108695652 23.186  16.4130434782609 25.86575  L 17.6051630434783 27.669  C 17.6051630434783 27.669  20.9964673913044 26.323  22.1073369565217 30  L 24.3586956521739 30  C 24.3586956521739 30  25.0649456521739 26.621  28.8788043478261 27.62  C 29.9646739130435 25.9145  29.9823369565217 25.898  29.9823369565217 25.898  C 29.9823369565217 25.898  27.1029891304348 23.6145  30 21.163  Z M 23.1888586956522 25.90225  C 21.7557065217391 25.90225  20.5932065217391 24.83325  20.5932065217391 23.51425  C 20.5932065217391 22.19525  21.7554347826087 21.126  23.1888586956522 21.126  C 24.6222826086956 21.126  25.7847826086957 22.19525  25.7847826086957 23.51425  C 25.7847826086957 24.83325  24.6222826086957 25.90225  23.1888586956522 25.90225  Z M 15.3260869565217 27  L 4.98940217391304 27  C 3.78722826086956 27.01475  2.81277173913043 26.11825  3 25.01225  L 3 4.98775  C 2.81277173913043 3.88175  3.78722826086956 2.98525  4.98940217391304 3  L 22.401902173913 3  C 23.604347826087 2.98525  24.5785326086957 3.88175  24 4.98775  L 24 15.625  L 27 15.625  L 27 2.5  C 27.2826086956522 1.11925  26.0660326086957 0  24.5652173913043 0  L 2.82608695652174 0  C 1.32527173913044 0  0.108695652173913 1.11925  0.108695652173913 2.5  L 0.108695652173913 27.5  C 0.108695652173913 28.8805  1.32527173913044 30  2.82608695652174 30  L 15.3260869565217 30  L 15.3260869565217 27  Z " fill-rule="nonzero" fill="#edb727" stroke="none" transform="matrix(1 0 0 1 1715 20 )" />
  </g>
</svg>