<?xml version="1.0" encoding="utf-8"?>
<svg version="1.1" xmlns:xlink="http://www.w3.org/1999/xlink" width="30px" height="30px" xmlns="http://www.w3.org/2000/svg">
  <g transform="matrix(1 0 0 1 -1725 -20 )">
    <path d="M 29.6260767272727 4.54081739712919  C 30.0590672727273 4.9738079138756  30.0590672727273 5.67478748325359  29.6260767272727 6.10777805741627  L 14.3961050239234 21.9468157320574  L 8.85914155980861 21.9468157320574  L 8.85914155980861 16.4098522679426  L 24.1444828995215 0.626184229665071  C 24.5774734449761 0.193193655502392  25.2784530143541 0.193193655502392  25.7114435598086 0.626184229665071  L 29.6260767272727 4.54081739712919  Z M 27.2772968038278 5.32485140669856  L 24.9274095502392 2.97496409569378  L 11.0739269282297 17.5172449665072  L 11.0739269282297 19.7320303349282  L 13.2887123253589 19.7320303349282  L 27.2772968038278 5.32485140669856  Z M 16.4724663157895 2.08240561722488  C 16.4724663157895 2.8841579138756  16.3063574066986 3.12003255502392  15.503497722488 3.12003255502392  L 2.21478539712919 3.12003255502392  L 2.21478539712919 27  L 26 27  L 26 14.1939594832536  C 26.5774246220096 13.3910997990431  26.8121919043062 13.2249908899522  27.6150516172249 13.2249908899522  C 28.4190186889952 13.2249908899522  28.7922100191388 13.3910997990431  28.7922100191388 14.1939594832536  L 28.7922100191388 27.4826718086124  C 28.7922100191388 28.5524131291866  27.6471659712919 29.6974572057416  26.5774246220096 29.6974572057416  L 2.21478539712919 29.6974572057416  C 1.14504404784689 29.6974572057416  0 28.5524131291866  0 27.4826718086124  L 0 3.12003255502392  C 0 2.04918381818182  1.14504404784689 0.905247157894736  2.21478539712919 1  L 15.503497722488 1  C 16.3063574066986 0.905247157894736  16.4724663157895 1.27954590430622  16.4724663157895 2.08240561722488  Z " fill-rule="nonzero" fill="#edb727" stroke="none" transform="matrix(1 0 0 1 1725 20 )" />
  </g>
</svg>