<?xml version="1.0" encoding="utf-8"?>
<svg version="1.1" xmlns:xlink="http://www.w3.org/1999/xlink" width="30px" height="30px" xmlns="http://www.w3.org/2000/svg">
  <g transform="matrix(1 0 0 1 -1645 -20 )">
    <path d="M 29.9899553571429 15.2039473684211  C 29.9899553571429 12.7664473684211  29.3872767857143 10.4671052631579  28.3191964285714 8.44078947368421  C 28.1383928571429 8.09539473684211  27.7734375 7.85526315789474  27.3515625 7.85526315789474  C 26.7555803571429 7.85526315789474  26.2734375 8.32894736842105  26.2734375 8.91118421052632  C 26.2734375 9.10855263157895  26.3303571428571 9.29605263157895  26.4274553571429 9.45394736842105  L 26.4241071428571 9.45723684210527  C 27.3247767857143 11.1809210526316  27.8337053571429 13.1348684210526  27.8337053571429 15.2039473684211  C 27.8337053571429 22.1644736842105  22.0881696428571 27.8092105263158  15.0033482142857 27.8092105263158  C 7.91852678571428 27.8092105263158  2.16964285714286 22.1644736842105  2.16964285714286 15.2039473684211  C 2.16964285714286 8.24342105263158  7.91517857142857 2.60197368421053  15 2.60197368421053  C 17.0926339285714 2.60197368421053  19.0680803571429 3.0953947368421  20.8125 3.96710526315789  L 20.8191964285714 3.95394736842105  C 20.9732142857143 4.03947368421053  21.1540178571429 4.08881578947368  21.3448660714286 4.08881578947368  C 21.9408482142857 4.08881578947368  22.4229910714286 3.61513157894737  22.4229910714286 3.0328947368421  C 22.4229910714286 2.60197368421053  22.1584821428571 2.23026315789474  21.7767857142857 2.06578947368421  C 19.7410714285714 1.04934210526316  17.4408482142857 0.476973684210526  15 0.476973684210526  C 6.71986607142857 0.476973684210526  0.0100446428571428 7.07236842105263  0.0100446428571428 15.2039473684211  C 0.0100446428571428 23.3355263157895  6.71986607142857 29.9309210526316  15 29.9309210526316  C 23.2801339285714 29.9309210526316  29.9899553571429 23.3388157894737  29.9899553571429 15.2039473684211  Z " fill-rule="nonzero" fill="#edb727" stroke="none" transform="matrix(1 0 0 1 1645 20 )" />
  </g>
</svg>