<?xml version="1.0" encoding="utf-8"?>
<svg version="1.1" xmlns:xlink="http://www.w3.org/1999/xlink" width="30px" height="30px" xmlns="http://www.w3.org/2000/svg">
  <g transform="matrix(1 0 0 1 -1795 -20 )">
    <path d="M 15 0  C 23.2842712474619 0  30 6.7157287525381  30 15  C 30 23.2842712474619  23.2842712474619 30  15 30  C 6.7157287525381 30  0 23.2842712474619  0 15  C 0 6.7157287525381  6.7157287525381 0  15 0  Z M 14.9999998084136 2.14285714285714  C 7.89919588201773 2.14285714285714  2.14285695127078 7.89919607360408  2.14285695127078 15  C 2.14285695127078 22.1008039263959  7.89919588201773 27.8571428571429  14.9999998084136 27.8571428571429  C 22.1008037348096 27.8571428571429  27.8571426655565 22.1008039263959  27.8571426655565 15  C 27.8571426655565 7.89919607360409  22.1008037348096 2.14285714285714  14.9999998084136 2.14285714285714  Z M 13.6885714285714 21.4285714285714  L 15.8314285714286 21.4285714285714  L 15.8314285714286 23.5714285714286  L 13.6885714285714 23.5714285714286  L 13.6885714285714 21.4285714285714  Z M 15.0364285714286 6.42857142857143  L 15.0385714285714 6.42857142857143  C 16.5471428571429 6.42857142857143  17.7728571428571 6.82928571428572  18.6685714285714 7.67785714285714  C 19.5407142857143 8.47928571428571  19.9885714285714 9.58714285714286  19.9885714285714 11.0014285714286  C 19.9885714285714 12.0621428571429  19.6821428571429 12.9814285714286  19.1164285714286 13.7592857142857  C 18.8807142857143 14.0421428571429  18.2207142857143 14.655  17.1835714285714 15.5742857142857  C 16.7494436080878 15.9308363979529  16.382282840691 16.3618512118534  16.0992857142857 16.8471428571429  C 15.7947702925356 17.3772757675327  15.6399736051385 17.9801681289744  15.6514285714286 18.5914285714286  L 15.6514285714286 19.1335714285714  L 13.7442857142857 19.1335714285714  L 13.7442857142857 18.5914285714286  C 13.7442857142857 17.8135714285714  13.8835714285714 17.13  14.19 16.5407142857143  C 14.4964285714286 15.8335714285714  15.2978571428571 14.9378571428571  16.5707142857143 13.8064285714286  C 16.9478571428571 13.4292857142857  17.2071428571429 13.1464285714286  17.3721428571429 12.9578571428571  C 17.8221428571429 12.3685714285714  18.0578571428571 11.7557142857143  18.0578571428571 11.0957142857143  C 18.0578571428571 10.1528571428571  17.7964285714286 9.42214285714286  17.2778571428571 8.90357142857143  C 16.7121428571429 8.33785714285714  15.9342857142857 8.07857142857143  14.9442857142857 8.07857142857143  C 13.7892857142857 8.07857142857143  12.9171428571429 8.45571428571429  12.33 9.23357142857143  C 11.8328571428571 9.89357142857143  11.5735714285714 10.7892857142857  11.5735714285714 11.9442857142857  L 9.68785714285715 11.9442857142857  C 9.68785714285715 10.2942857142857  10.1592857142857 8.97428571428572  11.0807142857143 7.98428571428572  C 12.0428571428571 6.94714285714286  13.3628571428571 6.42857142857143  15.0364285714286 6.42857142857143  Z " fill-rule="nonzero" fill="#edb727" stroke="none" transform="matrix(1 0 0 1 1795 20 )" />
  </g>
</svg>