<?xml version="1.0" encoding="utf-8"?>
<svg version="1.1" xmlns:xlink="http://www.w3.org/1999/xlink" width="30px" height="30px" xmlns="http://www.w3.org/2000/svg">
  <g transform="matrix(1 0 0 1 -1855 -20 )">
    <path d="M 27.3076922956731 25.3846153846154  L 27.3076922956731 15.7692307572115  C 27.3076922956731 15.1319791227914  27.8242868150991 14.6153846033654  28.4615384495192 14.6153846033654  C 29.0987900839394 14.6153846033654  29.6153846033654 15.1319791227914  29.6153846033654 15.7692307572115  L 29.6153846033654 25.3846153846154  C 29.6153846033654 27.7211538461538  27.7211538461538 29.6153846033654  25.3846153846154 29.6153846033654  L 4.61538461538462 29.6153846033654  C 2.27884615384615 29.6153846033654  0.384615396634616 27.7211538461538  0.384615396634616 25.3846153846154  L 0.384615396634616 5.76923076923077  C 0.384615396634616 3.43269230769231  2.27884615384615 1.53846155048077  4.61538461538462 1.53846155048077  L 14.6153846033654 1.53846155048077  C 15.2526362377855 1.53846155048077  15.7692307572115 2.05505606990678  15.7692307572115 2.69230770432692  C 15.7692307572115 3.32955933874707  15.2526362377855 3.84615385817308  14.6153846033654 3.84615385817308  L 4.61538461538462 3.84615385817308  C 3.55329856465574 3.84615385817308  2.69230770432692 4.7071447185019  3 5.76923076923077  L 3 25.3846153846154  C 2.69230770432692 26.4467014353443  3.55329856465574 27.3076922956731  4.61538461538462 27  L 25.3846153846154 27  C 26.4467014353443 27.3076922956731  27.3076922956731 26.4467014353443  27.3076922956731 25.3846153846154  Z M 22.6696153846154 5.76923076923077  L 25.7911538581731 5.76923076923077  L 22.5534615504808 2.32923075721154  C 22.3520564548461 2.1151888631652  22.2399127742129 1.83236278279729  22.2399127742129 1.53846153245192  C 22.2399127742129 0.901161721240736  22.7565463486446 0.384528146809021  23.3938461598558 0.384528146809021  C 23.7120660072154 0.384528146809021  24.0161605884642 0.515939707892382  24.2342307692308 0.747692307692309  L 29.3019230769231 6.13230768028846  C 29.9949999879808 6.86846152644231  29.4726923076923 8.07692307692308  28.4615384495192 8.07692307692308  L 22.6696153846154 8.07692307692308  C 19.7246153725962 8.07692307692308  17.3076923076923 10.6446153966346  17.3076923076923 13.8461538461538  L 17.3076923076923 20.7692307692308  C 17.3076923076923 21.4064824036509  16.7910977882663 21.9230769230769  16.1538461538462 21.9230769230769  C 15.516594519426 21.9230769230769  15 21.4064824036509  15 20.7692307692308  L 15 13.8461538461538  C 15 9.40038461538462  18.4176923076923 5.76923076923077  22.6696153846154 5.76923076923077  Z " fill-rule="nonzero" fill="#edb727" stroke="none" transform="matrix(1 0 0 1 1855 20 )" />
  </g>
</svg>