<?xml version="1.0" encoding="utf-8"?>
<svg version="1.1" xmlns:xlink="http://www.w3.org/1999/xlink" width="40px" height="40px" xmlns="http://www.w3.org/2000/svg">
  <g transform="matrix(1 0 0 1 -385 -390 )">
    <path d="M 39.4285714285714 38.25  C 39.4285714285714 37.25  38.5714285714286 36.5  37.1428571428571 36.5  L 34.8571428571429 36.5  L 34.8571428571429 32.5  C 34.8571428571429 30.25  33.7142857142857 28  31.7142857142857 26.25  L 28.2857142857143 23.25  L 26.5714285714286 21.75  L 26 21.5  C 26 21.5  25.7142857142857 21.5  25.7142857142857 21.25  C 25.4285714285714 21  25.1428571428572 20.5  25.1428571428572 20  C 25.1428571428572 19.5  25.4285714285714 19  25.7142857142857 18.75  C 25.7142857142857 18.75  25.7142857142857 18.5  26 18.5  L 26.8571428571429 18  L 27.1428571428572 17.5  L 28.2857142857143 16.5  L 32 13.5  C 34 12  34.8571428571429 9.75  34.8571428571429 7.5  L 34.8571428571429 3.5  L 37.1428571428571 3.5  C 38.2857142857143 3.5  39.4285714285714 2.75  39.4285714285714 2  C 39.4285714285714 1.25  38.5714285714286 0.5  37.1428571428571 1  L 3.42857142857143 1  C 2.28571428571429 0.5  1.14285714285714 1.25  1.14285714285714 2  C 1.14285714285714 2.75  2 3.5  3.42857142857143 3.5  L 5.71428571428571 3.5  L 5.71428571428571 7.25  C 5.71428571428571 9.5  6.85714285714286 11.75  8.85714285714286 13.5  L 10.2857142857143 14.75  L 14 18  L 14.2857142857143 18.25  L 14.8571428571429 18.5  L 15.1428571428571 18.75  C 15.4285714285714 19  15.7142857142857 19.5  15.7142857142857 20  L 15.7142857142857 20.5  C 15.7142857142857 20.75  15.4285714285714 21.25  15.1428571428571 21.5  L 14.8571428571429 21.5  L 14.2857142857143 22  L 10.2857142857143 25.25  L 8.85714285714286 26.5  C 6.85714285714286 28  5.71428571428572 30.25  5.71428571428572 32.75  L 5.71428571428572 36.75  L 3.14285714285714 36.75  C 2 36.75  0.857142857142858 37.5  0.857142857142858 38.25  C 0.857142857142858 39  1.71428571428572 39.75  3.14285714285714 39  L 37.1428571428571 39  C 38.2857142857143 39.75  39.4285714285714 39  39.4285714285714 38.25  Z M 9.14285714285714 36  L 9.14285714285714 32.5  C 9.14285714285714 31  10 29.5  11.1428571428571 28.5  L 15.1428571428571 25  L 18.2857142857143 22.5  C 18.5714285714286 22  18.5714285714286 21.75  18.8571428571429 21.25  C 18.8571428571429 20.75  19.1428571428571 20.5  19.1428571428571 20  L 19.1428571428571 18.75  C 19.1428571428571 18.5  19.1428571428571 18.25  18.8571428571429 18  L 18.8571428571429 17.75  C 18.2857142857143 17.5  18.2857142857143 17.5  18 17.25  L 14.8571428571429 14.5  L 11.1428571428571 11.25  C 9.71428571428571 10.25  9.14285714285714 8.75  9.14285714285714 7.25  L 9.14285714285714 4  L 31.7142857142857 4  L 31.7142857142857 7.25  C 31.7142857142857 8.75  30.8571428571429 10.25  29.7142857142857 11.25  L 25.1428571428571 15  L 23.4285714285714 16.5  L 23.1428571428571 16.75  L 22.8571428571429 17  C 22.5714285714286 17.5  22.2857142857143 18.25  22.2857142857143 18.75  L 22.2857142857143 19.75  C 22.2857142857143 20.25  22.2857142857143 20.5  22.5714285714286 21  C 22.5714285714286 21.75  22.8571428571429 22.75  23.4285714285714 23.25  L 24.8571428571429 24.5  L 29.4285714285714 28.5  C 30.8571428571429 29.5  31.4285714285714 31  31.4285714285714 32.5  L 31.4285714285714 36  L 9.14285714285714 36  Z " fill-rule="nonzero" fill="#ffffff" stroke="none" transform="matrix(1 0 0 1 385 390 )" />
  </g>
</svg>