<?xml version="1.0" encoding="utf-8"?>
<svg version="1.1" xmlns:xlink="http://www.w3.org/1999/xlink" width="40px" height="40px" xmlns="http://www.w3.org/2000/svg">
  <g transform="matrix(1 0 0 1 -385 -590 )">
    <path d="M 27.8826822916667 20  C 28.626953125 19.4995659722222  29.2093315972222 18.8284722222222  29.2093315972222 17.9706597222222  C 29.2093315972222 17.1127604166667  28.6269965277778 16.4414496527778  27.9231336805556 17  L 8.05325520833333 17  C 7.30876736111111 16.4414496527778  6.7265625 17.1127604166667  6.7265625 17.9706597222222  C 6.7265625 18.8284288194444  7.30881076388889 19.4995659722222  8.05325520833333 20  L 27.8826822916667 20  Z M 18.7285590277778 24  L 8.02764756944445 24  C 7.29778645833333 24.5907118055556  6.72664930555556 25.2619357638889  6.72664930555556 26.1198350694444  C 6.72664930555556 26.977734375  7.29778645833333 27.6487413194444  8.02764756944445 27  L 18.7285590277778 27  C 19.4585503472222 27.6487413194444  20.0294704861111 26.977734375  20.0294704861111 26.1198350694444  C 20.0294704861111 25.2619357638889  19.4585503472222 24.5907118055556  18.7285590277778 24  Z M 29.2092881944444 9.77977430555555  C 29.2093315972222 8.92174479166667  28.626953125 8.25043402777778  27.9230902777778 9  L 8.05325520833333 9  C 7.30876736111111 8.25043402777778  6.7265625 8.92174479166667  6.7265625 9.77977430555555  C 6.7265625 10.6375434027778  7.30881076388889 11.3086805555556  8.05325520833333 12  L 27.8826822916667 12  C 28.626953125 11.3086805555556  29.2092881944444 10.6375434027778  29.2092881944444 9.77977430555555  Z M 25.3098524305556 37.191015625  C 25.2515190972222 35.4420572916667  24.0243923611111 35.8231336805556  23.0818142361111 35.8231336805556  L 5.26427951388889 35.8146267361111  C 4.37491319444444 35.8146267361111  3.65655381944444 35.0963975694444  4 34.2081597222222  L 4 5.77239583333333  C 3.65655381944444 4.88420138888889  4.37491319444444 4.16605902777778  5.26427951388889 4.16605902777778  L 32.7807725694444 4.16584201388889  C 33.6266059027778 4.16584201388889  34.3201822916667 5.31627604166667  34 6.21623263888889  L 34 22.5509114583333  C 34.3201822916667 23.5047309027778  35.4209635416667 23.571875  36.3635416666667 23.571875  C 37.3061197916667 23.571875  37.3852430555556 22.4382378472222  37 21.5301649305556  L 37 6.21627604166667  C 37.3451822916667 3.45121527777778  35.8779513888889 1.10963541666667  33.1657552083333 1.10963541666667  L 5.56723090277778 1.10963541666667  C 2.81493055555556 1.10963541666667  0.598958333333333 3.33988715277778  1 6.10989583333333  L 1 33.8861979166667  C 0.598958333333333 36.6560763888889  2.81493055555556 38.8864583333333  5.5671875 38.8864583333333  L 23.58515625 38.8864583333333  C 24.527734375 38.8864583333333  25.3719618055556 39.0545572916667  25.3098524305556 37.191015625  Z M 38.9762152777778 28.870703125  C 39.5426215277778 28.3006510416667  39.5426215277778 27.3671006944444  38.9762586805556 26.8020399305556  C 38.409765625 26.2318576388889  37.487109375 26.2318576388889  36.9208333333333 26.8020399305556  L 29.5736111111111 34.1964409722222  L 26.4779079861111 31.0808159722222  C 25.9112847222222 30.5106336805556  24.9889756944444 30.5106336805556  24.4223524305556 31.0808159722222  C 23.8559461805556 31.6509114583333  23.8559461805556 32.5793836805556  24.4223524305556 33.1493489583333  L 28.5433159722222 37.3020833333333  C 29.1099392361111 37.872265625  30.0322482638889 37.872265625  30.5988715277778 37.3020833333333  L 38.9762152777778 28.870703125  Z " fill-rule="nonzero" fill="#ffffff" stroke="none" transform="matrix(1 0 0 1 385 590 )" />
  </g>
</svg>