<?xml version="1.0" encoding="utf-8"?>
<svg version="1.1" xmlns:xlink="http://www.w3.org/1999/xlink" width="40px" height="40px" xmlns="http://www.w3.org/2000/svg">
  <g transform="matrix(1 0 0 1 -385 -690 )">
    <path d="M 4.375 1  L 35.4871323529412 1  C 37.7714154411765 0.879934210526316  39.6231617647059 2.53675986842105  39 4.58059210526316  L 39 35.3782894736842  C 39.6231617647059 37.4221217105263  37.7714154411765 39.0789473684211  35.4871323529412 39  L 4.375 39  C 2.09071691176471 39.0789473684211  0.238970588235294 37.4221217105263  1 35.3782894736842  L 1 4.58059210526316  C 0.238970588235294 2.53675986842105  2.09071691176471 0.879934210526316  4.375 1  Z M 36 5.77302631578947  C 36.5900735294118 4.43318256578947  35.3761488970588 3.34703947368421  33.8786764705882 4  L 5.98345588235294 4  C 4.50096507352941 3.34703947368421  3.29636948529412 4.41159539473684  3.27242647058824 5.73289473684211  L 4 5.77302631578947  L 4 34.2680921052632  C 3.27205882352941 35.59453125  4.46185661764706 36.6723273026316  5.93860294117647 36.69375  L 5.98345588235294 36  L 33.8786764705882 36  C 35.3611672794118 36.6940789473684  36.5657628676471 35.6295230263158  36.5897058823529 34.3082236842105  L 36 34.2680921052632  L 36 5.77302631578947  Z M 9.453125 29.8273026315789  L 30.4549632352941 29.8273026315789  C 31.1529411764706 29.8273026315789  31.71875 30.3335526315789  31.71875 30.9580592105263  C 31.71875 31.5825657894737  31.1529411764706 32.0888157894737  30.4549632352941 32  L 9.453125 32  C 8.75514705882353 32.0888157894737  8.18933823529412 31.5825657894737  8.18933823529412 30.9580592105263  C 8.18933823529412 30.3335526315789  8.75514705882353 29.8273026315789  9.453125 29.8273026315789  Z M 9.453125 24.8108552631579  L 30.4549632352941 24.8108552631579  C 31.1529411764706 24.8108552631579  31.71875 25.3171052631579  31.71875 25.9416118421053  C 31.71875 26.5661184210526  31.1529411764706 27.0723684210526  30.4549632352941 27  L 9.453125 27  C 8.75514705882353 27.0723684210526  8.18933823529412 26.5661184210526  8.18933823529412 25.9416118421053  C 8.18933823529412 25.3171052631579  8.75514705882353 24.8108552631579  9.453125 24.8108552631579  Z M 15.22578125 8.28988486842105  L 20.2982536764706 20.1131167763158  C 20.4801470588235 20.5371299342105  20.2434742647059 21.0127878289474  19.7695772058824 21.1756167763158  C 19.2956801470588 21.3383634868421  18.7640625 21.1265625  18.5820772058824 20.7025493421053  L 17.1340533088235 17.3273026315789  L 11.4071231617647 17.3273026315789  L 9.95340073529412 20.7157894736842  C 9.7734375 21.1352796052632  9.25114889705882 21.3470394736842  8.78106617647059 21.1938733552632  L 8.76594669117647 21.1888157894737  C 8.29204963235294 21.0260690789474  8.0553768382353 20.5503700657895  8.23727022058824 20.1263569078947  L 13.3097426470588 8.3030427631579  C 13.4542738970588 7.96628289473684  13.8193933823529 7.76336348684211  14.2009650735294 7.7756990131579  C 14.6281709558824 7.70476973684211  15.0644761029412 7.91385690789474  15.22578125 8.28984375  Z M 23.1939338235294 18.4786184210526  L 30.4549632352941 18.4786184210526  C 31.1529411764706 18.4786184210526  31.71875 18.9848684210526  31.71875 19.609375  C 31.71875 20.2338815789474  31.1529411764706 20.7401315789474  30.4549632352941 20.7401315789474  L 23.1939338235294 20.7401315789474  C 22.4959558823529 20.7401315789474  21.9301470588235 20.2338815789474  21.9301470588235 19.609375  C 21.9301470588235 18.9848684210526  22.4959558823529 18.4786184210526  23.1939338235294 18.4786184210526  Z M 25.5606617647059 8.98026315789474  C 25.5606617647059 8.48067434210526  26.0133272058824 8.07565789473684  26.5716911764706 8.07565789473684  C 27.1300551470588 8.07565789473684  27.5827205882353 8.48067434210526  27.5827205882353 8.98026315789474  L 27.5827205882353 11.2828947368421  L 29.6966911764706 11.2828947368421  C 30.2550551470588 11.2828947368421  30.7077205882353 11.6879111842105  30.7077205882353 12.1875  C 30.7077205882353 12.6870888157895  30.2550551470588 13.0921052631579  29.6966911764706 13.0921052631579  L 27.5827205882353 13.0921052631579  L 27.5827205882353 14.9835526315789  C 27.5827205882353 15.4831414473684  27.1300551470588 15.8881578947368  26.5716911764706 15.8881578947368  C 26.0133272058824 15.8881578947368  25.5606617647059 15.4831414473684  25.5606617647059 14.9835526315789  L 25.5606617647059 13.0921052631579  L 22.9411764705882 13.0921052631579  C 22.3828125 13.0921052631579  21.9301470588235 12.6870888157895  21.9301470588235 12.1875  C 21.9301470588235 11.6879111842105  22.3828125 11.2828947368421  22.9411764705882 11.2828947368421  L 25.5606617647059 11.2828947368421  L 25.5606617647059 8.98026315789474  Z M 16.4284007352941 15.6825657894737  L 14.2705882352941 10.6529605263158  L 12.1127297794118 15.6825657894737  L 16.4284007352941 15.6825657894737  Z " fill-rule="nonzero" fill="#ffffff" stroke="none" transform="matrix(1 0 0 1 385 690 )" />
  </g>
</svg>