<?xml version="1.0" encoding="utf-8"?>
<svg version="1.1" xmlns:xlink="http://www.w3.org/1999/xlink" width="41px" height="50px" xmlns="http://www.w3.org/2000/svg">
  <defs>
    <filter x="141px" y="932px" width="47px" height="56px" filterUnits="userSpaceOnUse" id="filter550">
      <feOffset dx="1" dy="1" in="SourceAlpha" result="shadowOffsetInner" />
      <feGaussianBlur stdDeviation="2.5" in="shadowOffsetInner" result="shadowGaussian" />
      <feComposite in2="shadowGaussian" operator="atop" in="SourceAlpha" result="shadowComposite" />
      <feColorMatrix type="matrix" values="0 0 0 0 0  0 0 0 0 0  0 0 0 0 0  0 0 0 0.698039215686274 0  " in="shadowComposite" />
    </filter>
    <g id="widget551">
      <path d="M 163.5 978.057919565382  C 157.5 968.420258194081  148.5 962.637661371301  148.5 953  C 148.5 947.985714285714  151.5 939.5  163.5 939.5  C 175.5 939.5  178.5 947.985714285714  178.5 953  C 178.5 962.637661371301  169.5 968.420258194081  163.5 978.057919565382  Z " fill-rule="nonzero" fill="#d9001b" stroke="none" />
      <path d="M 163.5 979  C 157.3 969  148 963  148 953  C 148 947.8  151.1 939  163.5 939  C 175.9 939  179 947.8  179 953  C 179 963  169.7 969  163.5 979  Z M 163.5 977.115839130763  C 169.3 967.840516388162  178 962.275322742601  178 953  C 178 948.171428571429  175.1 940  163.5 940  C 151.9 940  149 948.171428571429  149 953  C 149 962.275322742601  157.7 967.840516388162  163.5 977.115839130763  Z " fill-rule="nonzero" fill="#ffffff" stroke="none" />
    </g>
  </defs>
  <g transform="matrix(1 0 0 1 -144 -935 )">
    <use xlink:href="#widget551" filter="url(#filter550)" />
    <use xlink:href="#widget551" />
  </g>
</svg>