<?xml version="1.0" encoding="utf-8"?>
<svg version="1.1" xmlns:xlink="http://www.w3.org/1999/xlink" width="16px" height="21px" xmlns="http://www.w3.org/2000/svg">
  <g transform="matrix(1 0 0 1 -41 -21 )">
    <path d="M 15.2425077967172 18.9534302623402  L 3.90641212121212 10.5836118197354  L 15.4046768939394 2.09465853049538  C 16.0383255681818 1.62742980735085  16.0383255681818 0.869937351296164  15.4046768939394 0.403290840287642  C 14.7726054292929 -0.0639378828568896  13.7465839015152 -0.0639378828568896  13.1137238320707 0.403290840287642  L 0.511119412878788 9.70697985617898  C -0.120952051767677 10.1736263671875  -0.120952051767677 10.9311188232422  0.511119412878788 11.3983475463867  C 0.560959343434344 11.4351434326172  0.617915688131313 11.464342619185  0.672499905303031 11.4952977405895  C 0.681994728535354 11.50288980269  0.689111111111112 11.511650949929  0.698605934343436 11.5192430120295  L 13.0053503472222 20.6050816606001  C 13.6231827335859 21.0612157270952  14.6246817234848 21.0612157270952  15.2425077967172 20.6050816606001  C 15.8603338699495 20.1489475941051  15.8603401830808 19.4095596679688  15.2425077967172 18.9534302623402  Z " fill-rule="nonzero" fill="#ffffff" stroke="none" transform="matrix(1 0 0 1 41 21 )" />
  </g>
</svg>