<?xml version="1.0" encoding="utf-8"?>
<svg version="1.1" xmlns:xlink="http://www.w3.org/1999/xlink" width="40px" height="40px" xmlns="http://www.w3.org/2000/svg">
  <g>
    <path d="M 1 6.74838242373572  C 0.383139173029318 3.08900342409694  3.48289164786254 0.122573635353663  7.30673711991749 0.122573636353328  C 11.1305825914501 0.122573636353328  14.2303350673279 3.08900342409694  15 6.74838242373572  L 15 33.2516175762643  C 14.2303350668057 36.9109965759031  11.1305825919724 39.8774263646463  7.30673711991749 39.8774263636467  C 3.48289164786254 39.877426362647  0.383139172507023 36.9109965759031  1 33.2516175762643  L 1 6.74838242373572  Z M 25 6.74838242373572  C 25.7696649331943 3.08900342409694  28.8694174080276 0.122573635353663  32.6932628800825 0.122573636353328  C 36.5171083516152 0.122573636353328  39.616860827493 3.08900342409694  39 6.74838242373572  L 39 33.2516175762643  C 39.6168608269707 36.9109965759031  36.5171083521375 39.8774263646463  32.6932628800825 39.8774263636467  C 28.8694174080276 39.877426362647  25.769664932672 36.9109965759031  25 33.2516175762643  L 25 6.74838242373572  Z " fill-rule="nonzero" fill="#ffffff" stroke="none" />
  </g>
</svg>