<?xml version="1.0" encoding="utf-8"?>
<svg version="1.1" xmlns:xlink="http://www.w3.org/1999/xlink" width="40px" height="40px" xmlns="http://www.w3.org/2000/svg">
  <g transform="matrix(1 0 0 1 -80 -1016 )">
    <path d="M 28.5641741071429 25.2022384751773  C 32.13671875 22.6900487588652  32.13671875 17.4263076241135  28.5641741071429 14.9141179078014  L 9.31026785714286 1.37799202127659  C 5.41517857142857 -1.3602615248227  0.0306919642857173 1.40514184397163  0 6.14361702127659  L 0 33.9732934397163  C 0.0306919642857173 38.7117686170213  5.41517857142857 41.4771719858156  9.31026785714286 38.7389184397163  L 28.5641741071429 25.2022384751773  Z M 39.8002232142857 36.8489583333333  C 39.8002232142857 38.5316932624114  38.4263392857143 39.8958333333333  36.7310267857143 39.8958333333333  C 35.0357142857143 39.8958333333333  33.6618303571429 38.5316932624114  33 36.8484042553192  L 33 3.26795212765957  C 33.6618303571429 1.58466312056738  35.0357142857143 0.22052304964539  36.7310267857143 0.22052304964539  C 38.4263392857143 0.22052304964539  39.8002232142857 1.58466312056738  39.8002232142857 3.26795212765957  L 39.8002232142857 36.8489583333333  Z " fill-rule="nonzero" fill="#ffffff" stroke="none" transform="matrix(1 0 0 1 80 1016 )" />
  </g>
</svg>