<?xml version="1.0" encoding="utf-8"?>
<svg version="1.1" xmlns:xlink="http://www.w3.org/1999/xlink" width="31px" height="31px" xmlns="http://www.w3.org/2000/svg">
  <g transform="matrix(1 0 0 1 -1836 -546 )">
    <path d="M 24.3119303443902 17.6187885443902  L 24.3022526887805 17.6187885443902  C 22.6451797000137 17.6224654612526  21.0497504653498 18.2475145765304  19.8311730146341 19.3704452985366  L 16.569801017561 14.725167702439  L 25.8119679317073 1.53451481951219  C 25.8823559728204 1.39762085252629  25.9190741966177 1.24591129931808  25.9190741966177 1.09198133300589  C 25.9190741966177 0.557498838202695  25.4857905255673 0.12421516715223  24.9513080307641 0.12421516715223  C 24.6832491809387 0.12421516715223  24.4271976913952 0.235397857267856  24.244186724878 0.431261414634146  L 15.3988039629268 13.0122215707317  L 6.5340658595122 0.431261414634146  C 6.35076115386639 0.194797599877986  6.06839161689779 0.0564128177545599  5.76919978746234 0.0564128177545599  C 5.23471729265915 0.0564128177545599  4.80143362160869 0.489696488805024  4.80143362160869 1.02417898360822  C 4.80143362160869 1.20452469667012  4.8518269464071 1.38128260790393  4.94692934146341 1.53451481951219  L 14.1987739112195 14.7058123609756  L 11.0341785307317 19.2156027180488  C 9.82288690394649 18.1795084134053  8.28134367427604 17.6101540281618  6.6873804334092 17.6101540281618  C 2.99410638095653 17.6101540281618  0.000116203165296632 20.604144205953  0.000116203165296632 24.2974182584057  C 0.000116203165296632 27.9906923108584  2.99410638095653 30.9846824886496  6.6873804334092 30.9846824886496  C 10.3806544858619 30.9846824886496  13.3746446636531 27.9906923108584  13.3746446636531 24.2974182584057  C 13.3746446636531 23.0329073044649  13.0161199380392 21.7943107656536  12.3406628546341 20.7253179307317  L 15.3891263073171 16.3897254956098  L 18.5730769990244 20.9188711639024  C 17.9805204367839 21.9353102996041  17.6683043317705 23.0907894912225  17.6683043317705 24.2673402959225  C 17.6683043317705 27.9392350452424  20.6449631600116 30.9158938734835  24.3168579093314 30.9158938734835  C 27.9887526586513 30.9158938734835  30.9654114868924 27.9392350452424  30.9654114868924 24.2673402959225  C 30.9654114868924 20.5954455466026  27.9887526586513 17.6187867183615  24.3168579093314 17.6187867183615  C 24.3152153875149 17.6187867183615  24.3135728657557 17.6187873270378  24.3119303443902 17.6187885443902  Z M 11.4309626829268 24.277019777561  C 11.4256255796861 26.8815141886272  9.31276366088674 28.9900464615336  6.70826378146342 28.9900409931707  C 4.09999911583942 28.9900409931811  1.98557479569689 26.8756166730386  1.98557479569689 24.2673420917177  C 1.98557479569689 21.6590675103968  4.09999911583942 19.5446431902543  6.7082736971603 19.5446431902543  C 9.31654827848119 19.5446431902543  11.4309725986237 21.6590675103968  11.4309725986237 24.2673420917177  C 11.4309725986237 24.2705679895387  11.4309692933897 24.2737938865131  11.4309626829268 24.277019777561  Z M 29.0249515902439 24.277019777561  C 29.0196144870032 26.8815141886272  26.9067525682038 28.9900464615336  24.3022526887805 28.9900409931707  C 21.6939880231565 28.9900409931811  19.579563703014 26.8756166730386  19.579563703014 24.2673420917177  C 19.579563703014 21.6590675103968  21.6939880231565 19.5446431902543  24.3022626044774 19.5446431902543  C 26.9105371857983 19.5446431902543  29.0249615059408 21.6590675103968  29.0249615059408 24.2673420917177  C 29.0249615059408 24.2705679895387  29.0249582007068 24.2737938865131  29.0249515902439 24.277019777561  Z " fill-rule="nonzero" fill="#cfcfcf" stroke="none" transform="matrix(1 0 0 1 1836 546 )" />
  </g>
</svg>