<?xml version="1.0" encoding="utf-8"?>
<svg version="1.1" xmlns:xlink="http://www.w3.org/1999/xlink" width="31px" height="38px" xmlns="http://www.w3.org/2000/svg">
  <g transform="matrix(1 0 0 1 2 0 )">
    <path d="M 30 17.8766956764915  C 30.4488716078016 15.2289408846768  28.3087392971463 13.0824893443714  25.6687264363607 13.0824893443714  L 24.9344812106662 13.0824893443714  L 24.9344812106662 9.55416336780895  C 24.9344812106662 7.05455126731179  23.9830387871636 4.69604807128906  22.2554864637587 2.91315686700994  C 20.4823692111545 1.08322936123935  18.0773664388021 0.0754876376065333  15.4835639200846 0.0754876376065333  C 10.1840042629666 0.0754876376065333  6.03268968505859 4.23897615855824  6.03268968505859 9.55412022816052  L 6.03268968505859 13.082446204723  L 5.33131661919487 13.082446204723  C 2.69130375840928 13.082446204723  0.551128434244786 15.2288977450284  1 17.876652536843  L 1 32.9565738103693  C 0.551128392198351 35.6043286443537  2.69130375840929 37.7507801424893  5.33131657714844 37  L 25.6687694498698 37  C 28.3087823106554 37.7507801424893  30.4489576348199 35.604328602184  30 32.9565738103693  L 30 17.8766956764915  Z M 7.77086949869792 13  L 7.77086949869792 9.55420650745739  C 7.77086949869792 5.21668370472301  11.1586808770074 1.81889421386719  15.4835208645291 1.81889421386719  C 17.6036459228516 1.81889421386719  19.5659502115885 2.63900861816406  21.0088829861111 4.1282034934304  C 22.419416917589 5.58386882546165  23.1962152438694 7.51084641335227  23.1962152438694 9.55420646528764  L 23.1962152438694 13  L 7.77086949869792 13  Z M 28.7106487386068 17.8766956764915  L 28.7106487386068 32.9565738103693  C 28.7106487386068 34.641508704723  27.348734620497 36.0074167058771  25.6687264363607 36  L 5.33127356363932 36  C 3.65126537950304 36.0074167058771  2.28935126139323 34.641508704723  2.28935126139323 32.9565738103693  L 2.28935126139323 17.8766956764915  C 2.28935126139323 16.1917607821378  3.65126537950304 14.8258527809837  5.33127356363932 15  L 25.6687264363607 15  C 27.348734620497 14.8258527809837  28.7106487386068 16.1917607821378  28.7106487386068 17.8766956764915  Z " fill-rule="nonzero" fill="#cfcfcf" stroke="none" transform="matrix(1 0 0 1 -2 0 )" />
  </g>
</svg>