<?xml version="1.0" encoding="utf-8"?>
<svg version="1.1" xmlns:xlink="http://www.w3.org/1999/xlink" width="31px" height="38px" xmlns="http://www.w3.org/2000/svg">
  <g>
    <path d="M 30.8898342689732 17.8369751996528  C 30.8898342689732 15.3310542317708  28.7591431598772 13.2996426367187  26.1307523702567 14  L 7.44059284040179 14  L 7.44059284040179 9.8403991015625  C 7.44059284040179 5.56479351779514  10.9656043108259 2.21554876736111  15.4656133105469 2.21554876736111  C 18.8441826492746 2.21554876736111  21.7820978864397 4.1429952734375  22.9501830761719 7.12595729817708  C 23.1173369098772 7.55283010850694  23.6155233872768 7.7695787109375  24.0634797014509 7.61029781032986  C 24.5111704743304 7.45089032552083  24.7385562960379 6.97570585069445  24.5714024623326 6.54887522135417  C 23.1481388351004 2.91423282335069  19.5738707519531 0.565651812065972  15.4656133105469 0.565651812065972  C 12.7877888950893 0.565651812065972  10.3084512779018 1.54133698350694  8.48440799107143 3.3130468641493  C 6.69528243303571 5.05070650173611  5.71001758091517 7.36882372612847  5.71001758091517 9.8403991015625  L 5.71001758091517 13.2996426367187  L 4.84472995117187 13.2996426367187  C 2.21638340401785 13.2996426367187  0.0856480524553545 15.3310542317708  0 17.8369751996528  L 0 32.9338928190104  C 0.0856480524553545 35.4397716059028  2.21633916155134 37.4712253819444  4.84472995117187 37  L 26.1307523270089 37  C 28.7591431166295 37.4712253819444  30.8898342257254 35.4398137868924  30.8898342257254 32.9338928190104  L 30.8898342689732 17.8369751996528  Z M 29 17.8369751996528  L 29 32.9338928190104  C 29.1592590094866 34.5285582834201  27.8033526130022 35.8212862868924  26.1307523270089 35.8212862868924  L 4.84472999441964 35.8212862868924  C 3.17212975167411 35.8212862868924  1.81622331194197 34.5285583246528  2 32.9338928190104  L 2 17.8369751996528  C 1.81622331194196 16.2423097352431  3.17212970842634 14.9495817317708  4.84472999441964 15  L 26.1307523702567 15  C 27.8033526130022 14.9495817317708  29.1592590527344 16.2423096940104  29 17.8369751996528  Z " fill-rule="nonzero" fill="#cfcfcf" stroke="none" />
  </g>
</svg>