<?xml version="1.0" encoding="utf-8"?>
<svg version="1.1" xmlns:xlink="http://www.w3.org/1999/xlink" width="25px" height="19px" xmlns="http://www.w3.org/2000/svg">
  <g>
    <path d="M 2.26934523809524 4.08774038461538  L 5.10292657761347 4.08774038461538  L 11.3684275890532 0.289567307692307  C 12.094494047619 -0.150416657151444  13.0505952380952 0.0636378109975953  13.5044642857143 0.767612189002403  C 13.6585441371373 1.00663461538461  13.7400793747675 1.28280449669471  13.7400793747675 1.5644551186899  L 13.7400793747675 17.4355448813101  C 13.7400793747675 18.2661858879207  13.0459449404762 18.9391025736178  12.189980149042 18.9391025736178  C 11.8994915480841 18.9391025736178  11.6148933337984 18.8599359164663  11.3684275890532 18.7107371890024  L 5.10292657761347 14.9122596153846  L 2.26934523809524 14.9122596153846  C 1.07080854143415 14.9122596153846  0.0992063395182292 13.969871804387  0.0992063395182292 12.8073397340745  L 0.0992063395182292 6.19266026592548  C 0.0992063395182292 5.03012822415866  1.07080851236979 4.08774038461538  2.26934523809524 4.08774038461538  Z M 12 2.10705127253606  L 5.86247520810082 5.75480769230769  C 5.71427682499626 5.84448306006494  5.54361065642881 5.89192280549896  5.36954366048177 5.89182692307692  L 2.26934523809524 5.89182692307692  C 2.09821428571429 5.89182692307692  1.95932538713728 6.02641026592548  1.95932538713728 6.19266026592548  L 1.95932538713728 12.8076442307692  C 1.95932538713728 12.9735897340745  2.09821428571429 13.1084775736178  2.26934523809524 13.1084775736178  L 5.36954366048177 13.1084775736178  C 5.54377482096354 13.1084775736178  5.7145957438151 13.1559775736178  5.86247520810082 13.245496804387  L 12 16.8929487274639  L 12 2.10705127253606  Z M 20.8968874104818 0.432067307692306  C 26.2354290771484 5.43631411207932  26.2354290771484 13.5633814197716  20.8968874104818 18.567628195613  C 20.525853304444 18.9138259667995  19.9408133669379 18.9042086808488  19.5817832438151 18.5460096153846  C 19.4141732742859 18.3787793894706  19.3202313171004 18.1535281745997  19.3202313171004 17.9188682292624  C 19.3202313171004 17.6735528938679  19.4228717221767 17.4390162166544  19.6041046723865 17.2702083428486  C 24.1861979166667 12.9751121890024  24.1861979166667 6.02427884615384  19.6041046723865 1.72918269230769  C 19.4229676096913 1.56038337562365  19.3203891016167 1.32591092862577  19.3203891016167 1.08066980809398  C 19.3203891016167 0.846086359942474  19.4142699844097 0.620902262747907  19.5817832438151 0.453685887920672  C 19.9408133669379 0.0954868224564505  20.525853304444 0.0858695365057628  20.8968874104818 0.432067307692306  Z M 17.7898685418992 14.9655448813101  C 17.4152418803556 15.3082187568398  16.8301110568613 15.2927745117377  16.4747643752325 14.9308333428486  C 16.3114247659558 14.7642034145393  16.2201745450471 14.5418962259103  16.2201745450471 14.3105921112283  C 16.2201745450471 14.0621104584148  16.3254372395823 13.8248314887585  16.5107266961961 13.6556410351562  C 19.0169270833333 11.3546314197716  19.0169270833333 7.64506411207933  16.5107266961961 5.34375  C 16.3254372395823 5.1745595463977  16.2201745450471 4.9372805767414  16.2201745450471 4.68879892392799  C 16.2201745450471 4.45749480924593  16.3114247659558 4.23518762061691  16.4747643752325 4.06855769230769  C 16.8301110568613 3.70661652341853  17.4152418803556 3.69117227831646  17.7898685418992 4.03384615384615  C 21.0708085123698 7.04674680438702  21.0708085123698 11.9529487274639  17.7898685418992 14.9658493494591  Z " fill-rule="nonzero" fill="#ffffff" stroke="none" />
  </g>
</svg>