<?xml version="1.0" encoding="utf-8"?>
<svg version="1.1" xmlns:xlink="http://www.w3.org/1999/xlink" width="25px" height="19px" xmlns="http://www.w3.org/2000/svg">
  <g>
    <path d="M 2.29668674698795 4.08774038461538  L 5.16440762071724 4.08774038461538  L 11.5053965961502 0.289567307692307  C 12.2402108433735 -0.150416657151444  13.2078313253012 0.0636378109975953  13.6671686746988 0.767612189002403  C 13.8231049098739 1.00663461538461  13.9056224997647 1.28280449669471  14 1.5644551186899  L 14 17.4355448813101  C 13.9056224997647 18.2661858879207  13.203125 18.9391025736178  12.3368473797534 18.9391025736178  C 12.0428589161333 18.9391025736178  11.7548318076995 18.8599359164663  11.5053965961502 18.7107371890024  L 5.16440762071724 14.9122596153846  L 2.29668674698795 14.9122596153846  C 1.08370984916227 14.9122596153846  0.100401596620858 13.969871804387  0.100401596620858 12.8073397340745  L 0.100401596620858 6.19266026592548  C 0.100401596620858 5.03012822415866  1.08370981974774 4.08774038461538  2.29668674698795 4.08774038461538  Z M 12 2.10705127253606  L 5.93310743952372 5.75480769230769  C 5.78312353373116 5.84448306006494  5.61040114626531 5.89192280549896  5.43423695759601 5.89182692307692  L 2.29668674698795 5.89182692307692  C 2.12349397590361 5.89182692307692  1.98293171710279 6.02641026592548  1.98293171710279 6.19266026592548  L 1.98293171710279 12.8076442307692  C 1.98293171710279 12.9735897340745  2.12349397590362 13.1084775736178  2.29668674698795 13.1084775736178  L 5.43423695759601 13.1084775736178  C 5.61056728868599 13.1084775736178  5.78344629494541 13.1559775736178  5.93310743952372 13.245496804387  L 12 16.8929487274639  L 12 2.10705127253606  Z M 22.0798820183076 9.68269230769231  L 24.6234939759036 12.1511698813101  C 24.792193917209 12.3148463043942  24.8869720561136 12.5368634114602  24.8869720561136 12.7683653846154  C 24.8869720561136 13.2503656107784  24.4843405548604 13.6411039969176  23.9876694277108 13.6411039969176  C 23.7491979780604 13.6411039969176  23.5204904560014 13.5491845650491  23.3518448795181 13.3855608879207  L 20.8082329219221 10.9173878109976  L 18.2646209937406 13.3858653846154  C 18.0959754159055 13.5494890592715  17.8672678943531 13.6414084894332  17.6287964455478 13.6414084894332  C 17.132125312654 13.6414084894332  16.7294938067442 13.2506700987749  16.7294938067442 12.7686698670373  C 16.7294938067442 12.5371678877078  16.8242719496001 12.3151507750156  16.9929718973551 12.1514743494591  L 19.5365838255365 9.68299680438702  L 16.992971897355 7.21451923076923  C 16.8211374855512 7.05047170425525  16.7243635735371 6.82634208404079  16.7243635735371 6.59241891105722  C 16.7243635735371 6.11046195440329  17.126958930269 5.71975864513174  17.6235854708921 5.71975864513174  C 17.8646286897243 5.71975864513174  18.0955802641368 5.8136740046679  18.2646209937406 5.98043269230769  L 20.8082329219221 8.44891026592548  L 23.3518448795181 5.98043269230769  C 23.5208856091219 5.8136740046679  23.7518371835344 5.71975864513174  23.9928804023665 5.71975864513174  C 24.4895069429896 5.71975864513174  24.8921022997216 6.1104619544033  24.8921022997216 6.59241891105722  C 24.8921022997216 6.82634208404079  24.7953283877075 7.05047170425525  24.6234939759036 7.21451923076923  L 22.0798820183076 9.68299680438702  Z " fill-rule="nonzero" fill="#ffffff" stroke="none" />
  </g>
</svg>