<?xml version="1.0" encoding="utf-8"?>
<svg version="1.1" xmlns:xlink="http://www.w3.org/1999/xlink" width="29px" height="22px" xmlns="http://www.w3.org/2000/svg">
  <g transform="matrix(1 0 0 1 -1811 -1027 )">
    <path d="M 23.1309523809524 2.4444444333044  L 5.86904761904762 2.4444444333044  C 4.28013316641572 2.4444444333044  2.99206350330171 3.538859484286  2.99206350330171 4.8888888666088  C 2.99206350330171 4.8888888666088  2.99206350330171 4.88888889525463  3 4.88888889525463  L 3 17.1111110904225  C 2.99206350330171 17.1111110904225  2.99206350330171 17.1111111190683  2.99206350330171 17.1111111190683  C 2.99206350330171 18.4611405013911  4.28013316641572 19.5555555523727  5.86904761904762 19.5555555523727  L 11.6230158842541 19.5555555523727  C 12.4176933431073 19.5555555380498  13.0617281822116 20.1027630699532  13.0617281822116 20.7777777690249  C 13.0617281822116 21.4527924680966  12.4176933431073 22  11.6232361074813 22  L 5.86904761904762 21.9999999856771  C 2.69121869516374 21.9999999856771  0.115079353841146 19.8111698708887  0.115079353841146 17.1111110904225  L 0.115079353841146 4.88888889525463  C 0.115079353841146 2.18883011478838  2.69121869516374 0  5.86904761904762 0  L 23.1309523809524 0  C 26.3087813048363 0  28.8849206461589 2.18883011478838  28.8849206461589 4.88888889525463  L 28.8849206461589 8.55555555953415  C 28.8849206461589 9.23057025860587  28.2408858070546 9.77777779050926  27.4464285714286 9.77777779050926  C 26.6519713358026 9.77777779050926  26.0079364966983 9.23057025860587  26.0079364966983 8.55555555953414  L 26.0079364966983 4.88888889525463  C 26.0079364966983 3.538859484286  24.7198668335843 2.4444444333044  23.1309523809524 2.4444444333044  Z M 24.5694444556827 12.2222222238137  L 18.8154761904762 12.2222222238137  C 16.4321045022183 12.2222222238137  14.5 13.8638448066986  14.5 15.8888888880932  L 14.5 18.3333333213976  C 14.5 20.3583774027921  16.4321045022183 21.9999999856771  18.8154761904762 21.9999999856771  L 24.5694444556827 21.9999999856771  C 26.9528161439406 21.9999999856771  28.8849206461589 20.3583774027921  28.8849206461589 18.3333333213976  L 28.8849206461589 15.8888888880932  C 28.8849206461589 13.8638448066986  26.9528161439406 12.2222222238137  24.5694444556827 12.2222222238137  Z " fill-rule="nonzero" fill="#ffffff" stroke="none" transform="matrix(1 0 0 1 1811 1027 )" />
  </g>
</svg>