<?xml version="1.0" encoding="utf-8"?>
<svg version="1.1" xmlns:xlink="http://www.w3.org/1999/xlink" width="29px" height="22px" xmlns="http://www.w3.org/2000/svg">
  <g transform="matrix(1 0 0 1 -1756 -1026 )">
    <path d="M 28.5732194767442 10.0599842767296  C 28.9835153607792 10.6714293732115  28.9835153607792 11.4127425435534  28.5732194767442 12.0241876400354  L 22.5680838288063 20.9602463222288  C 22.1423529795067 21.5976931157214  21.3276870052136 21.9945392275855  20.4419089037518 22  L 8.51664244186047 22  C 7.63086435220586 21.994539217743  6.81619839334906 21.597693107252  6.39046754973656 20.9602463222288  L 0.385331868868095 12.0241876400354  C -0.0249640151669287 11.4127425435534  -0.0249640151669275 10.6714293732115  0.385331868868095 10.0599842767296  L 6.39046754973656 1.12392556751179  C 6.8161984020039 0.486478792927062  7.63086435918755 0.0896326936057618  8.51664244186046 0  L 20.4419089037518 0  C 21.3276869982319 0.0896326837633009  22.1423529708519 0.486478784457658  22.5680838288063 1.12392556751179  L 28.5732194767442 10.0599842767296  Z M 20.7348594851472 20.1185272626769  L 26.729457375318 11.1824685534591  C 26.7879496640835 11.0951375512384  26.7879496640835 10.9893226074683  26.7294573753179 10.9019916052476  L 20.7348594851472 1.96593292305424  C 20.6743399447782 1.87484215179572  20.558147202086 1.8180501242085  20.4317223837209 2  L 8.52682896189135 2  C 8.4004041435263 1.8180501242085  8.28421140083412 1.87484215179572  8.22369186046512 1.96593292305424  L 2.22909400322493 10.9019916052476  C 2.17060171445942 10.9893226074683  2.17060171445942 11.0951375512384  2.22909400322493 11.1824685534591  L 8.22369186046512 20.1185272626769  C 8.2843039235099 20.2095066591635  8.40047875249121 20.266179454252  8.52682896189135 20  L 20.4317223837209 20  C 20.5580725931211 20.266179454252  20.6742474221024 20.2095066591635  20.7348594851472 20.1185272626769  Z M 20.0088057060774 10.9308176100629  C 20.0088056731468 13.478170877555  17.4923812874727 15.5429769482115  14.3886506892714 15.5429769482115  C 11.2845688204033 15.5429769482115  8.76849563953488 13.478170877555  8.76849563953488 10.9308176100629  C 8.76849563953488 8.38346434257076  11.2845687874727 6.31865827191431  14.3886506892714 6.31865827191431  C 17.4923813204033 6.31865827191431  20.008805739008 8.38346434257075  20.0088057060774 10.9308176100629  Z M 10.8760537790698 10.9308176100629  C 10.8760537790698 12.5228773584906  12.4486434218296 13.8134171997838  14.3886506892714 13.8134171997838  C 16.3286579567133 13.8134171997838  17.9012475994731 12.5228773584906  17.9012475665425 10.9308176100629  C 17.9012475336119 9.33875786163522  16.3286579237827 8.04821802034198  14.3886506892714 8.04821802034198  C 12.4486434547602 8.04821802034198  10.8760537790698 9.33875786163522  10.8760537790698 10.9308176100629  Z " fill-rule="nonzero" fill="#ffffff" stroke="none" transform="matrix(1 0 0 1 1756 1026 )" />
  </g>
</svg>