<?xml version="1.0" encoding="utf-8"?>
<svg version="1.1" xmlns:xlink="http://www.w3.org/1999/xlink" width="11px" height="8px" xmlns="http://www.w3.org/2000/svg">
  <g>
    <path d="M 2.13282978723404 1.87134502467105  L 6.5536335646609 1.87134502467105  C 7.84621489405212 1.87134502467105  8.8940590965758 2.81390344607991  8.8940590965758 3.97660818256579  C 8.8940590965758 5.13931291905167  7.84621489405212 6.08187134046053  6.5536335646609 6.08187134046053  L 2.13282978723404 6.08187134046053  L 2.13282978723404 1.87134502467105  Z M 6.5536335646609 0  L 1.40469739444814 0  C 0.657872629500828 0  0.0524515417220738 0.544589317545402  0.0524515417220743 1.21637427357456  L 0.0524515417220743 7.8783625685307  C 0.0518662887722275 7.88171946505479  0.0515723312320519 7.88511223911269  0.0515723312320519 7.88851016515368  C 0.0515723312320519 7.92468320392314  0.0841719309178672 7.95400724574579  0.124385575081786 7.95400724574579  C 0.128163052240286 7.95400724574579  0.131934801948501 7.95374282523228  0.135666666666666 7.95321637883772  L 6.5536335646609 7.95321637883772  C 8.99517607713575 7.95321637883772  10.9744373497063 6.17282824848714  10.9744373497063 3.97660818941886  C 10.9744373497063 1.78038813035058  8.99517607713575 0  6.5536335646609 0  Z " fill-rule="nonzero" fill="#333333" stroke="none" />
  </g>
</svg>