<?xml version="1.0" encoding="utf-8"?>
<svg version="1.1" xmlns:xlink="http://www.w3.org/1999/xlink" width="11px" height="8px" xmlns="http://www.w3.org/2000/svg">
  <g transform="matrix(1 0 0 1 0 -7 )">
    <path d="M 2.0319527027027 1.91812865953947  L 6.73915991474873 1.91812865953947  C 7.97060559373476 1.91812865953947  8.96888959749042 2.86068708094833  8.96888959749042 4.02339181743421  C 8.96888959749042 5.18609655392009  7.97060559373476 6.12865497532895  6.73915986776069 6.12865497532895  L 2.0319527027027 6.12865497532895  L 2.0319527027027 1.91812865953947  Z M 6.73915991474873 0.0467836211622805  L 0.0499707255595438 0.0467836211622805  L 0.0499707255595438 6.98947368421052  C 0.0499707255595438 7.54757195772375  0.529147047362262 8  1.12024099582981 8  L 6.73915991474873 8  C 9.06522406514706 8  10.9508716288799 6.21961186964942  10.9508716288799 4.02339181058114  C 10.9508716288799 1.82717175151286  9.06522406514706 0.0467836211622825  6.73915991474873 0.0467836211622825  Z " fill-rule="nonzero" fill="#333333" stroke="none" transform="matrix(1 0 0 1 0 7 )" />
  </g>
</svg>