<?xml version="1.0" encoding="utf-8"?>
<svg version="1.1" xmlns:xlink="http://www.w3.org/1999/xlink" width="10px" height="9px" xmlns="http://www.w3.org/2000/svg">
  <g>
    <path d="M 1.93893617021277 2.10526315275493  L 5.95784869514628 2.10526315275493  C 7.13292263095648 2.10526315275493  8.08550826961436 3.1656413768399  8.08550826961436 4.47368420538651  C 8.08550826961436 5.78172703393313  7.13292263095648 6.84210525801809  5.95784869514628 6.84210525801809  L 1.93893617021277 6.84210525801809  L 1.93893617021277 2.10526315275493  Z M 5.95784869514628 0  L 1.27699763131649 0  C 0.598066026818935 0  0.0476832197473398 0.612662982238577  0.0476832197473403 1.36842105777138  L 0.0476832197473403 8.86315788959704  C 0.0471511716111159 8.86693439818663  0.0468839374836836 8.87075126900178  0.0468839374836836 8.87457393579789  C 0.0468839374836836 8.91526860441353  0.0765199371980611 8.94825815146401  0.113077795528896 8.94825815146401  C 0.116511865672988 8.94825815146401  0.119940729044092 8.94796067838632  0.123333333333333 8.94736842619244  L 5.95784869514628 8.94736842619244  C 8.17743279739613 8.94736842619244  9.97676122700576 6.94443177954803  9.97676122700576 4.47368421309622  C 9.97676122700576 2.0029366466444  8.17743279739613 0  5.95784869514628 0  Z " fill-rule="nonzero" fill="#74e637" stroke="none" />
  </g>
</svg>