<?xml version="1.0" encoding="utf-8"?>
<svg version="1.1" xmlns:xlink="http://www.w3.org/1999/xlink" width="11px" height="15px" xmlns="http://www.w3.org/2000/svg">
  <g>
    <path d="M 1.03125 7.14663461538462  C 1.03125 10.1337516517291  3.03197752419364 12.5552884615385  5.5 12.5552884615385  C 7.96802247580636 12.5552884615385  9.96875 10.1337516517291  9.96875 7.14663461538462  L 9.96875 0.0443786982248521  L 8.36458333333333 0.0443786982248521  L 8.36458333333333 7.14663461538462  C 8.36458333333333 9.06145322842592  7.08206568961946 10.6137204142012  5.5 10.6137204142012  C 3.91793431038054 10.6137204142012  2.63541666666667 9.06145322842592  2.63541666666667 7.14663461538462  L 2.63541666666667 0.0443786982248521  L 1.03125 0.0443786982248521  L 1.03125 7.14663461538462  Z M 10.5416666666667 13.8467085798817  L 0.458333333333333 13.8467085798817  C 0.20520282299422 13.8467085798817  0 14.0950713296057  0 14.4014423076923  C 0 14.7078132857789  0.20520282299422 14.956176035503  0.458333333333333 14.956176035503  C 0.458333333333333 14.956176035503  0.458333333333333 14.956176035503  0.458333333333333 15  L 10.5416666666667 15  C 10.5416666666667 14.956176035503  10.5416666666667 14.956176035503  10.5416666666667 14.956176035503  C 10.7947971770058 14.956176035503  11 14.7078132857789  11 14.4014423076923  C 11 14.0950713296057  10.7947971770058 13.8467085798817  10.5416666666667 13.8467085798817  Z " fill-rule="nonzero" fill="#333333" stroke="none" />
  </g>
</svg>