<?xml version="1.0" encoding="utf-8"?>
<svg version="1.1" xmlns:xlink="http://www.w3.org/1999/xlink" width="11px" height="9px" xmlns="http://www.w3.org/2000/svg">
  <g transform="matrix(1 0 0 1 0 -6 )">
    <path d="M 2.0319527027027 2.15789474198191  L 6.73915991474873 2.15789474198191  C 7.97060559373476 2.15789474198191  8.96888959749042 3.21827296606687  8.96888959749042 4.52631579461348  C 8.96888959749042 5.8343586231601  7.97060559373476 6.89473684724506  6.73915986776069 6.89473684724506  L 2.0319527027027 6.89473684724506  L 2.0319527027027 2.15789474198191  Z M 6.73915991474873 0.0526315738075655  L 0.0499707255595438 0.0526315738075655  L 0.0499707255595438 7.86315789473684  C 0.0499707255595438 8.49101845243922  0.529147047362262 9  1.12024099582981 9  L 6.73915991474873 9  C 9.06522406514706 9  10.9508716288799 6.9970633533556  10.9508716288799 4.52631578690378  C 10.9508716288799 2.05556822045197  9.06522406514706 0.0526315738075678  6.73915991474873 0.0526315738075678  Z " fill-rule="nonzero" fill="#74e637" stroke="none" transform="matrix(1 0 0 1 0 6 )" />
  </g>
</svg>