<?xml version="1.0" encoding="utf-8"?>
<svg version="1.1" xmlns:xlink="http://www.w3.org/1999/xlink" width="17px" height="15px" xmlns="http://www.w3.org/2000/svg">
  <g>
    <path d="M 12.7673507725694 7.27656405029297  L 15.0651550347222 8.64510922851562  L 15.0651550347222 2.84508440551758  C 15.0651550347222 2.3309166306462  14.6452521770087 1.91410129394531  14.1272757519531 1.91410129394531  C 14.1272757519531 1.91410129394531  14.1272757335069 1.91410129394531  14.1272757335069 2  L 2.87272426649305 2  C 2.87272426649305 1.91410129394531  2.87272424804687 1.91410129394531  2.87272424804687 1.91410129394531  C 2.35474782299126 1.91410129394531  1.93484496527778 2.3309166306462  1.93484496527778 2.84508440551758  L 1.93484496527778 11.9966484558105  L 9.86930375542535 7.27656405029297  C 10.761037035934 6.7447499085551  11.8756174920608 6.7447499085551  12.7673507725694 7.27656405029297  Z M 15.0651550347222 12.1549155944824  L 15.0651550347222 10.8142998962402  L 11.791956311849 8.86854517822266  C 11.5017754472029 8.70224105589972  11.1442578752797 8.70224105589972  10.8540770106337 8.86854517822266  L 3.7449520062934 13  L 14.1272757335069 13  C 14.1272756205647 13.0858987060547  14.1272758648953 13.0858987060547  14.1272757519531 13.0858987060547  C 14.6452521770087 13.0858987060547  15.0651550347222 12.6690833693538  15.0651550347222 12.1549155944824  Z M 0.0590863997395823 2.84508440551758  C 0.0590863997395823 1.30258107079079  1.31879498113867 0.052135052490234  2.87272426649305 0  L 14.1272757335069 0  C 14.1272757335069 0.0521350524902336  14.1272757335069 0.0521350524902336  14.1272757335069 0.0521350524902336  C 15.6812050188613 0.0521350524902336  16.9409136002604 1.30258107079079  16.9409136002604 2.84508440551758  L 16.9409136002604 12.1549155944824  C 16.9409136002604 13.6974189292092  15.6812050188613 14.9478649475098  14.1272757335069 15  L 2.87272426649305 15  C 1.31879498113867 14.9478649475098  0.0590863997395823 13.6974189292092  0.0590863997395823 12.1549155944824  L 0.0590863997395823 2.84508440551758  Z M 6.62424141601562 5.17254221191406  C 6.62424141601562 5.94379387927745  5.99438712531608 6.56901688842773  5.21742248263889 6.56901688842773  C 4.44045783996169 6.56901688842773  3.81060354926215 5.94379387927745  3.81060354926215 5.17254221191406  C 3.81060354926215 4.40129054455067  4.44045783996169 3.77606753540039  5.21742248263889 3.77606753540039  C 5.99438712531608 3.77606753540039  6.62424141601562 4.40129054455067  6.62424141601562 5.17254221191406  Z " fill-rule="nonzero" fill="#74e637" stroke="none" />
  </g>
</svg>