<?xml version="1.0" encoding="utf-8"?>
<svg version="1.1" xmlns:xlink="http://www.w3.org/1999/xlink" width="1351px" height="46px" xmlns="http://www.w3.org/2000/svg">
  <defs>
    <mask fill="white" id="clip546">
      <path d="M 0 46  L 0 0  L 132.614379084969 0  L 1351 0  L 1351 46  L 237.189542483659 46  L 0 46  Z " fill-rule="evenodd" />
    </mask>
  </defs>
  <g transform="matrix(1 0 0 1 -370 -230 )">
    <path d="M 0 46  L 0 0  L 132.614379084969 0  L 1351 0  L 1351 46  L 237.189542483659 46  L 0 46  Z " fill-rule="nonzero" fill="#000000" stroke="none" fill-opacity="0.2" transform="matrix(1 0 0 1 370 230 )" />
    <path d="M 0 46  L 0 0  L 132.614379084969 0  L 1351 0  L 1351 46  L 237.189542483659 46  L 0 46  Z " stroke-width="2" stroke="#ffffff" fill="none" transform="matrix(1 0 0 1 370 230 )" mask="url(#clip546)" />
  </g>
</svg>