<?xml version="1.0" encoding="utf-8"?>
<svg version="1.1" xmlns:xlink="http://www.w3.org/1999/xlink" width="16px" height="16px" xmlns="http://www.w3.org/2000/svg">
  <g transform="matrix(1 0 0 1 -2 -4 )">
    <path d="M 13.6427083398438 6.06587300967262  L 10.1420833398437 6.06587300967262  C 10.4666666796875 4.68492062872024  10.6933333398438 3.68611110491071  10.8225 3.06746032366071  C 11.1475 1.50992062872024  10.3035416601563 0.0634920572916667  8.63083333984375 0.0634920572916667  C 7.1225 0.0634920572916667  6.365 0.777380952380952  5.91833333984375 2.20436508556548  L 5.906875 2.24603175223214  C 5.63875 3.40039683779762  5.22875 4.2952380952381  4.68604166015625 4.93551586681548  C 4.11443556725249 5.61159221902823  3.25868012869901 6.0129595861703  2.3475 6.03234127604167  L 1.91958333984375 6.04107142857143  C 0.89916666015625 6.06190476190476  0.08333333984375 6.86190476190476  0.08333333984375 7.84186508556548  L 0.08333333984375 13.7539682477679  C 0.08333333984375 14.959325390625  1.1010416796875 15.9365079241071  2.35666666015625 15.9365079427083  L 10.41375 15.9365079427083  C 12.06875 15.9365079427083  13.5460416601563 14.9400793712798  14.1075 13.4454365141369  L 15.78125 8.98888889508929  C 16.2070833398438 7.85496032366072  15.595 6.60416666666667  14.4139583398438 6.1952380952381  C 14.1667548656925 6.10964218574889  13.9057429380051 6.06586153050235  13.6427083398438 6.06587300967262  Z M 8.63 1.25396824776786  C 9.39666666015625 1.25396824776786  9.79208333984375 1.93253967633929  9.604375 2.83373015252976  C 9.45645833984375 3.54325396205357  9.175 4.77619047619048  8.76020833984375 6.52916666666667  C 8.67208333984375 6.90158729538691  8.96645833984375 7.25634920014881  9.36395833984375 7.25634920014881  L 13.6347916601562 7.25634920014881  C 13.7539583203125 7.25634920014881  13.8722916601563 7.27619047619048  13.9845833398438 7.31527777157738  C 14.520625 7.50099205729167  14.7985416796875 8.06964285714286  14.6052083398438 8.58511904761905  L 12.9339583398438 13.0414682477679  C 12.5504166601562 14.0644841331845  11.5410416601562 14.7460317522321  10.4102083398437 14.7460317522321  L 2.36520833984375 14.7460317522321  C 1.79520833984375 14.7460317522321  1.33333333984375 14.3017857142857  1.33333333984375 13.7539682477679  L 1.33333333984375 7.84186508556548  C 1.33333333984375 7.50952380952381  1.60958333984375 7.23829365699405  1.955 7.23134920014881  L 2.38208333984375 7.22261904761905  C 3.65636482753789 7.19524255834425  4.85287048298781 6.63317551832233  5.65125 5.68690476190476  C 6.32208333984375 4.89444443824405  6.80645833984375 3.83968253348214  7.11354166015625 2.52698413318452  C 7.41604166015625 1.5702380952381  7.756875 1.25396824776786  8.63020833984375 1.25396824776786  Z " fill-rule="nonzero" fill="#000000" stroke="none" transform="matrix(1 0 0 1 2 4 )" />
  </g>
</svg>