<?xml version="1.0" encoding="utf-8"?>
<svg version="1.1" xmlns:xlink="http://www.w3.org/1999/xlink" width="7px" height="12px" xmlns="http://www.w3.org/2000/svg">
  <g transform="matrix(1 0 0 1 -385 -247 )">
    <path d="M 6.66859716106376 10.8305315784801  L 1.7090553030303 6.04777818270597  L 6.73954614109848 1.19694773171165  C 7.01676743607955 0.929959889914773  7.01676743607955 0.497107057883523  6.73954614109848 0.230451908735795  C 6.46301487531565 -0.0365359330610798  6.01413045691288 -0.0365359330610798  5.73725417653093 0.230451908735795  L 0.22361474313447 5.54684563210227  C -0.0529165226483587 5.81350078125  -0.0529165226483587 6.24635361328125  0.22361474313447 6.51334145507813  C 0.245419712752525 6.53436767578125  0.270338113557449 6.55105292524858  0.294218708570076 6.56874156605114  C 0.298372693734217 6.57307988725142  0.301486111111112 6.57808625710227  0.305640096275253 6.58242457830256  L 5.68984077690972 11.7743323774858  C 5.96014244594381 12.034980415483  6.39829825402462 12.034980415483  6.66859716106376 11.7743323774858  C 6.9388960681029 11.5136843394886  6.93889883009785 11.091176953125  6.66859716106376 10.8305315784801  Z " fill-rule="nonzero" fill="#ffffff" stroke="none" transform="matrix(1 0 0 1 385 247 )" />
  </g>
</svg>