<?xml version="1.0" encoding="utf-8"?>
<svg version="1.1" xmlns:xlink="http://www.w3.org/1999/xlink" width="20px" height="20px" xmlns="http://www.w3.org/2000/svg">
  <g>
    <path d="M 0.191569586514659 3.37419121186786  C 0.191569586514659 1.54450171204847  1.74144582393127 0.0612868176768314  3.65336855995874 0.0612868181766639  C 5.56529129572507 0.0612868181766639  7.11516753366397 1.54450171204847  7.11516753340283 3.37419121186786  L 7.11516753340283 16.6258087881321  C 7.11516753340283 18.4554982879515  5.56529129598622 19.9387131823232  3.65336855995874 19.9387131818233  C 1.74144582393127 19.9387131813235  0.191569586253512 18.4554982879515  0.191569586514659 16.6258087881321  L 0.191569586514659 3.37419121186786  Z M 12.8848324665972 3.37419121186786  C 12.8848324665972 1.54450171204847  14.4347087040138 0.0612868176768314  16.3466314400413 0.0612868181766639  C 18.2585541758076 0.0612868181766639  19.8084304137465 1.54450171204847  19.8084304134853 3.37419121186786  L 19.8084304134853 16.6258087881321  C 19.8084304134853 18.4554982879515  18.2585541760687 19.9387131823232  16.3466314400413 19.9387131818233  C 14.4347087040138 19.9387131813235  12.884832466336 18.4554982879515  12.8848324665972 16.6258087881321  L 12.8848324665972 3.37419121186786  Z " fill-rule="nonzero" fill="#ffffff" stroke="none" fill-opacity="0.996078431372549" />
  </g>
</svg>