<?xml version="1.0" encoding="utf-8"?>
<svg version="1.1" xmlns:xlink="http://www.w3.org/1999/xlink" width="20px" height="20px" xmlns="http://www.w3.org/2000/svg">
  <g transform="matrix(1 0 0 1 -422 -949 )">
    <path d="M 14.2820870535714 12.6011192375886  C 16.068359375 11.3450243794326  16.068359375 8.71315381205673  14.2820870535714 7.45705895390071  L 4.65513392857143 0.688996010638297  C 2.70758928571429 -0.680130762411349  0.0153459821428587 0.702570921985815  0 3.0718085106383  L 0 16.9866467198582  C 0.0153459821428587 19.3558843085106  2.70758928571429 20.7385859929078  4.65513392857143 19.3694592198582  L 14.2820870535714 12.6011192375886  Z M 20 18.4244791666667  C 19.9001116071429 19.2658466312057  19.2131696428571 19.9479166666667  18.3655133928571 19.9479166666667  C 17.5178571428571 19.9479166666667  16.8309151785714 19.2658466312057  16.8309151785714 18.4242021276596  L 16.8309151785714 1.63397606382979  C 16.8309151785714 0.792331560283688  17.5178571428571 0.110261524822695  18.3655133928571 0.110261524822695  C 19.2131696428571 0.110261524822695  19.9001116071429 0.792331560283688  20 1.63397606382979  L 20 18.4244791666667  Z " fill-rule="nonzero" fill="#ffffff" stroke="none" fill-opacity="0.996078431372549" transform="matrix(1 0 0 1 422 949 )" />
  </g>
</svg>