<?xml version="1.0" encoding="utf-8"?>
<svg version="1.1" xmlns:xlink="http://www.w3.org/1999/xlink" width="25px" height="25px" xmlns="http://www.w3.org/2000/svg">
  <g transform="matrix(1 0 0 1 -1675 -650 )">
    <path d="M 19.6063954390244 14.2087004390244  L 19.5985908780488 14.2087004390244  C 18.2622416935595 14.2116656945585  16.9756052139918 14.715737561718  15.9928814634146 15.6213268536585  L 13.3627427560976 11.8751352439024  L 20.8161031707317 1.23751195121951  C 20.8728677200164 1.12711359074701  20.9024791908207 1.00476717686942  20.9024791908207 0.880630107262813  C 20.9024791908207 0.449595837260238  20.5530568754575 0.10017352189696  20.1220226054549 0.10017352189696  C 19.9058461136602 0.10017352189696  19.6993529769316 0.189836981667626  19.5517634878049 0.347791463414634  L 12.4183902926829 10.4937270731707  L 5.26940795121951 0.347791463414634  C 5.12158157569871 0.157094838611279  4.89386420717564 0.0454942078665805  4.65258047375996 0.0454942078665805  C 4.22154620375738 0.0454942078665805  3.8721238883941 0.394916523229858  3.8721238883941 0.825950793232434  C 3.8721238883941 0.971390884411389  3.91276366645734 1.1139375870193  3.98945914634146 1.23751195121951  L 11.4506241219512 11.859526097561  L 8.89853107317073 15.4964538048781  C 7.92168298705362 14.6608938817784  6.67850296312584 14.2017371194853  5.39304873662032 14.2017371194853  C 2.41460192012624 14.2017371194853  9.37122300779294E-05 16.6162453273815  9.37122300779294E-05 19.5946921438756  C 9.37122300779294E-05 22.5731389603696  2.41460192012624 24.9876471682658  5.39304873662032 24.9876471682658  C 8.37149555311441 24.9876471682658  10.7860037610106 22.5731389603696  10.7860037610106 19.5946921438756  C 10.7860037610106 18.5749252455362  10.4968709177735 17.5760570690755  9.95214746341463 16.7139660731707  L 12.4105857317073 13.2175205609756  L 14.978287902439 16.8700573902439  C 14.5004197070838 17.6897663706485  14.2486325256213 18.6216044284052  14.2486325256213 19.5704357225181  C 14.2486325256213 22.5316411655181  16.649163838719 24.9321724786157  19.6103692817189 24.9321724786157  C 22.5715747247188 24.9321724786157  24.9721060378165 22.5316411655181  24.9721060378165 19.5704357225181  C 24.9721060378165 16.6092302795182  22.5715747247188 14.2086989664206  19.6103692817189 14.2086989664206  C 19.6090446673507 14.2086989664206  19.6077200530288 14.2086994572886  19.6063954390244 14.2087004390244  Z M 9.21851829268293 19.5782417560976  C 9.21421417716623 21.6786404746993  7.51029327490867 23.3790697270432  5.40989014634146 23.3790653170732  C 3.3064508998705 23.3790653170816  1.60126999652975 21.6738844137408  1.60126999652975 19.5704371707401  C 1.60126999652975 17.4669899277394  3.3064508998705 15.7618090243986  5.40989814287121 15.7618090243986  C 7.51334538587192 15.7618090243986  9.21852628921268 17.4669899277394  9.21852628921268 19.5704371707401  C 9.21852628921268 19.5730387012409  9.21852362370136 19.5756402310589  9.21851829268293 19.5782417560976  Z M 23.4072190243902 19.5782417560976  C 23.4029149088735 21.6786404746993  21.698994006616 23.3790697270432  19.5985908780488 23.3790653170732  C 17.4951516315778 23.3790653170816  15.7899707282371 21.6738844137408  15.7899707282371 19.5704371707401  C 15.7899707282371 17.4669899277394  17.4951516315778 15.7618090243986  19.5985988745785 15.7618090243986  C 21.7020461175792 15.7618090243986  23.40722702092 17.4669899277394  23.40722702092 19.5704371707401  C 23.40722702092 19.5730387012409  23.4072243554087 19.5756402310589  23.4072190243902 19.5782417560976  Z " fill-rule="nonzero" fill="#cfcfcf" stroke="none" transform="matrix(1 0 0 1 1675 650 )" />
  </g>
</svg>