<?xml version="1.0" encoding="utf-8"?>
<svg version="1.1" xmlns:xlink="http://www.w3.org/1999/xlink" width="25px" height="25px" xmlns="http://www.w3.org/2000/svg">
  <g>
    <path d="M 24.5556110297309 11.7609839976918  C 24.5555416191949 10.0190400557085  22.8296284654405 8.6069008844549  20.7005858357747 8.6069008844549  L 20.108452589247 8.6069008844549  L 20.108452589247 6.28563379461115  C 20.108452589247 4.64115214954723  19.3411603122287 3.08950531005859  17.9479729546441 1.91655057040128  C 16.5180396864149 0.712650895552202  14.5785213216146 0.0496629194779825  12.4867450968424 0.0496629194779825  C 8.21290666368272 0.0496629194779825  4.86507232666015 2.78880010431463  4.86507232666015 6.2856054132635  L 4.86507232666015 8.60687250310725  L 4.29944888644748 8.60687250310725  C 2.17040625678168 8.60687250310725  0.444458414713537 10.0190116743608  0.444458414713537 11.7609556163441  L 0.444458380805121 21.6819564541903  C 0.444458380805121 23.4239004239169  2.17040625678168 24.8360395674272  4.29944885253906 24.8360395674272  L 20.7006205240885 24.8360395674272  C 22.8296631537543 24.8360395674272  24.5556109958225 23.4239003961737  24.5556109958225 21.6819564541903  L 24.5556110297309 11.7609839976918  Z M 6.26683024088542 9  L 6.26683024088542 6.28566217595881  C 6.26683024088542 3.43202875310724  8.99893619113498 1.19664093017578  12.4867103746202 1.19664093017578  C 14.1964886474609 1.19664093017578  15.7789921061198 1.73618988037109  16.9426475694444 2.71592335094105  C 18.0801749335395 3.67359791148792  18.7066251966688 4.94134632457386  18.7066251966688 6.28566214821555  L 18.7066251966688 9  L 6.26683024088542 9  Z M 23.1537489827474 11.7609839976918  L 23.1537489827474 21.6819564541903  C 23.1537489827474 22.7904662531072  22.0554311455621 23.6890899380771  20.7005858357747 23.6890899380771  L 4.29941416422526 23.6890899380771  C 2.94456885443793 23.6890899380771  1.8462510172526 22.7904662531072  1.8462510172526 21.6819564541903  L 1.8462510172526 11.7609839976918  C 1.8462510172526 10.6524741987749  2.94456885443793 9.75385051380504  4.29941416422526 10  L 20.7005858357747 10  C 22.0554311455621 9.75385051380504  23.1537489827474 10.6524741987749  23.1537489827474 11.7609839976918  Z " fill-rule="nonzero" fill="#cfcfcf" stroke="none" />
  </g>
</svg>