<?xml version="1.0" encoding="utf-8"?>
<svg version="1.1" xmlns:xlink="http://www.w3.org/1999/xlink" width="25px" height="25px" xmlns="http://www.w3.org/2000/svg">
  <g>
    <path d="M 24.9111566685268 11.7348521050347  C 24.9111566685268 10.0862198893229  23.1928573869978 8.74976489257812  21.0731873953683 9  L 6.00047809709822 9  L 6.00047809709822 6.47394677734375  C 6.00047809709822 3.66104836697049  8.84322928292411 1.45759787326389  12.4722687988281 1.45759787326389  C 15.1969214913504 1.45759787326389  17.5662079729353 2.72565478515625  18.5082121582031 4.68812980143229  C 18.6430136369978 4.96896717664931  19.0447769252232 5.11156494140625  19.4060320172991 5.00677487521701  C 19.7670729631696 4.90190152994792  19.9504486258371 4.58928016493056  19.8156471470424 4.30847054036458  C 18.6678538992746 1.91725843641493  15.7853796386719 0.372139350043403  12.4722687988281 0.372139350043403  C 10.3127329799107 0.372139350043403  8.31326715959821 1.01403748914931  6.84226450892857 2.17963609483507  C 5.39942131696428 3.32283322482639  4.60485288783482 4.84791034613715  4.60485288783482 6.47394677734375  L 4.60485288783482 8.74976489257812  L 3.90704028320312 8.74976489257812  C 1.78740597098214 8.74976489257812  0.0690710100446407 10.0862198893229  0.0690710100446407 11.7348521050347  L 0.0690710100446407 21.667034749349  C 0.0690710100446407 23.3156392144097  1.78737029157366 24.6521219618056  3.90704028320312 24.6521219618056  L 21.0731873604911 24.6521219618056  C 23.1928573521205 24.6521219618056  24.9111566336496 23.3156669650608  24.9111566336496 21.667034749349  L 24.9111566685268 11.7348521050347  Z M 23.5155314941406 11.7348521050347  L 23.5155314592634 21.667034749349  C 23.5155314592634 22.716156765408  22.4220585588728 23.5666357150608  21.0731873604911 23.5666357150608  L 3.90704031808036 23.5666357150608  C 2.55816915457589 23.5666357150608  1.46469621930804 22.7161567925347  1.46469621930804 21.667034749349  L 1.46469621930804 11.7348521050347  C 1.46469621930804 10.6857300889757  2.55816911969866 9.83525113932292  3.90704031808036 10  L 21.0731873953683 10  C 22.4220585588728 9.83525113932292  23.5155314941406 10.685730061849  23.5155314941406 11.7348521050347  Z " fill-rule="nonzero" fill="#cfcfcf" stroke="none" />
  </g>
</svg>