<?xml version="1.0" encoding="utf-8"?>
<svg version="1.1" xmlns:xlink="http://www.w3.org/1999/xlink" width="26px" height="21px" xmlns="http://www.w3.org/2000/svg">
  <g>
    <path d="M 24.9516129032258 2  L 1.18817205393145 2  C 1.18817205393145 2.05725191883349  1.18817205393145 2.05725191883349  1.18817205393145 2.05725191883349  C 0.609163848463684 2.05725191883349  0.139784957157258 1.60868225024793  0.139784957157258 1.05534352188693  C 0.139784957157258 0.502004793525922  0.609163848463684 0.053435124940362  1.18817205393145 0.053435124940362  C 1.18817205393145 0.053435124940362  1.18817205393145 0.053435124940362  1.18817205393145 0  L 24.9516129032258 0  C 24.9516129032258 0.053435124940362  24.9516129032258 0.053435124940362  24.9516129032258 0.053435124940362  C 25.5306211086936 0.053435124940362  26 0.502004793525922  26 1.05534352188693  C 26 1.60868225024793  25.5306211086936 2.05725191883349  24.9516129032258 2.05725191883349  C 24.9516129032258 2.05725191883349  24.9516129032258 2.05725191883349  24.9516129032258 2  Z M 24.9516129032258 8.36526718600907  L 18.982795688004 8.36526718600907  C 18.4037874825363 8.36526718600907  17.9344085912298 7.91669751742351  17.9344085912298 7.3633587890625  C 17.9344085912298 6.8100200607015  18.4037874825363 6.36145039211593  18.982795688004 6.36145039211593  L 24.9516129032258 6.36145039211593  C 25.5306211086936 6.36145039211593  26 6.8100200607015  26 7.3633587890625  C 26 7.91669751742351  25.5306211086936 8.36526718600907  24.9516129032258 8.36526718600907  Z M 6.89838709677419 20.9826335773497  L 1.18817205393145 20.9826335773497  C 0.609163848463684 20.9826335773497  0.139784957157258 20.5340639087642  0.139784957157258 19.9807251804031  C 0.139784957157258 19.4273864520421  0.609163848463684 18.9788167834566  1.18817205393145 18.9788167834566  L 6.89838709677419 18.9788167834566  C 7.47739530224196 18.9788167834566  7.94677419354839 19.4273864520421  7.94677419354839 19.9807251804031  C 7.94677419354839 20.5340639087642  7.47739530224196 20.9826335773497  6.89838709677419 20.9826335773497  Z M 14.1462365700605 8.36526718600907  L 1.18817205393145 8.36526718600907  C 0.609163848463684 8.36526718600907  0.139784957157258 7.91669751742351  0.139784957157258 7.3633587890625  C 0.139784957157258 6.8100200607015  0.609163848463684 6.36145039211593  1.18817205393145 6.36145039211593  L 14.1462365700605 6.36145039211593  C 14.7252447755282 6.36145039211593  15.1946236668347 6.8100200607015  15.1946236668347 7.3633587890625  C 15.1946236668347 7.91669751742351  14.7252447755282 8.36526718600907  14.1462365700605 8.36526718600907  Z M 6.89838709677419 14.6746183101741  L 1.18817205393145 14.6746183101741  C 0.609163848463684 14.6746183101741  0.139784957157258 14.2260486415886  0.139784957157258 13.6727099132276  C 0.139784957157258 13.1193711848666  0.609163848463684 12.670801516281  1.18817205393145 12.670801516281  L 6.89838709677419 12.670801516281  C 7.47739530224196 12.670801516281  7.94677419354839 13.1193711848666  7.94677419354839 13.6727099132276  C 7.94677419354839 14.2260486415886  7.47739530224196 14.6746183101741  6.89838709677419 14.6746183101741  Z " fill-rule="nonzero" fill="#ffffff" stroke="none" />
  </g>
</svg>