<?xml version="1.0" encoding="utf-8"?>
<svg version="1.1" xmlns:xlink="http://www.w3.org/1999/xlink" width="24px" height="21px" xmlns="http://www.w3.org/2000/svg">
  <g transform="matrix(1 0 0 1 -1 0 )">
    <path d="M 23.0322580645161 2  L 1.09677420362903 2  C 1.09677420362903 2.05725191883349  1.09677420362903 2.05725191883349  1.09677420362903 2.05725191883349  C 0.562305090889554 2.05725191883349  0.129032268145161 1.60868225024793  0.129032268145161 1.05534352188693  C 0.129032268145161 0.502004793525922  0.562305090889554 0.053435124940362  1.09677420362903 0.053435124940362  C 1.09677420362903 0.053435124940362  1.09677420362903 0.053435124940362  1.09677420362903 0  L 23.0322580645161 0  C 23.0322580645161 0.053435124940362  23.0322580645161 0.053435124940362  23.0322580645161 0.053435124940362  C 23.5667271772556 0.053435124940362  24 0.502004793525922  24 1.05534352188693  C 24 1.60868225024793  23.5667271772556 2.05725191883349  23.0322580645161 2.05725191883349  C 23.0322580645161 2.05725191883349  23.0322580645161 2.05725191883349  23.0322580645161 2  Z M 23.0322580645161 8.36526718600907  L 17.5225806350806 8.36526718600907  C 16.9881115223412 8.36526718600907  16.5548386995968 7.91669751742351  16.5548386995968 7.3633587890625  C 16.5548386995968 6.8100200607015  16.9881115223412 6.36145039211593  17.5225806350806 6.36145039211593  L 23.0322580645161 6.36145039211593  C 23.5667271772556 6.36145039211593  24 6.8100200607015  24 7.3633587890625  C 24 7.91669751742351  23.5667271772556 8.36526718600907  23.0322580645161 8.36526718600907  Z M 6.36774193548387 20.9826335773497  L 1.09677420362903 20.9826335773497  C 0.562305090889554 20.9826335773497  0.129032268145161 20.5340639087642  0.129032268145161 19.9807251804031  C 0.129032268145161 19.4273864520421  0.562305090889554 18.9788167834566  1.09677420362903 18.9788167834566  L 6.36774193548387 18.9788167834566  C 6.90221104822335 18.9788167834566  7.33548387096774 19.4273864520421  7.33548387096774 19.9807251804031  C 7.33548387096774 20.5340639087642  6.90221104822335 20.9826335773497  6.36774193548387 20.9826335773497  Z M 13.0580645262097 8.36526718600907  L 1.09677420362903 8.36526718600907  C 0.562305090889554 8.36526718600907  0.129032268145161 7.91669751742351  0.129032268145161 7.3633587890625  C 0.129032268145161 6.8100200607015  0.562305090889554 6.36145039211593  1.09677420362903 6.36145039211593  L 13.0580645262097 6.36145039211593  C 13.5925336389492 6.36145039211593  14.0258064616935 6.8100200607015  14.0258064616935 7.3633587890625  C 14.0258064616935 7.91669751742351  13.5925336389492 8.36526718600907  13.0580645262097 8.36526718600907  Z M 6.36774193548387 14.6746183101741  L 1.09677420362903 14.6746183101741  C 0.562305090889554 14.6746183101741  0.129032268145161 14.2260486415886  0.129032268145161 13.6727099132276  C 0.129032268145161 13.1193711848666  0.562305090889554 12.670801516281  1.09677420362903 12.670801516281  L 6.36774193548387 12.670801516281  C 6.90221104822335 12.670801516281  7.33548387096774 13.1193711848666  7.33548387096774 13.6727099132276  C 7.33548387096774 14.2260486415886  6.90221104822335 14.6746183101741  6.36774193548387 14.6746183101741  Z " fill-rule="nonzero" fill="#74e637" stroke="none" transform="matrix(1 0 0 1 1 0 )" />
  </g>
</svg>