<?xml version="1.0" encoding="utf-8"?>
<svg version="1.1" xmlns:xlink="http://www.w3.org/1999/xlink" width="20px" height="20px" xmlns="http://www.w3.org/2000/svg">
  <g>
    <path d="M 1.81547619047619 4.30288461538462  L 4.08234126209077 4.30288461538462  L 9.09474207124256 0.304807692307692  C 9.67559523809524 -0.158333323317309  10.4404761904762 0.0669871694711529  10.8035714285714 0.808012830528845  C 10.9268353097098 1.05961538461538  10.992063499814 1.35032052283654  11 1.64679486177885  L 11 18.3532051382212  C 10.992063499814 19.2275640925481  10.436755952381 19.9358974459135  9.75198411923363 19.9358974459135  C 9.51959323846726 19.9358974459135  9.29191466703869 19.8525641225962  9.09474207124256 19.6955128305288  L 4.08234126209077 15.6971153846154  L 1.81547619047619 15.6971153846154  C 0.856646833147321 15.6971153846154  0.0793650716145834 14.7051282151442  0.0793650716145834 13.4814102463942  L 0.0793650716145834 6.51858975360577  C 0.0793650716145834 5.29487181490385  0.856646809895833 4.30288461538462  1.81547619047619 4.30288461538462  Z M 9.50396826171875 2.21794870793269  L 4.68998016648066 6.0576923076923  C 4.57142145999701 6.15208743164731  4.43488852514305 6.20202400578838  4.29563492838542 6.20192307692308  L 1.81547619047619 6.20192307692308  C 1.67857142857143 6.20192307692308  1.56746030970982 6.34358975360577  1.56746030970982 6.51858975360577  L 1.56746030970982 13.4817307692308  C 1.56746030970982 13.6564102463942  1.67857142857143 13.7983974459135  1.81547619047619 13.7983974459135  L 4.29563492838542 13.7983974459135  C 4.43501985677083 13.7983974459135  4.57167659505208 13.8483974459135  4.68998016648066 13.9426282151442  L 9.50396826171875 17.7820512920673  L 9.50396826171875 2.21794870793269  Z M 16.7175099283854 0.454807692307691  C 20.9883432617188 5.72243590745192  20.9883432617188 14.2772435997596  16.7175099283854 19.5448717848558  C 16.4206826435552 19.9092904913679  15.9526506935503 19.8991670324725  15.6654265950521 19.5221153846154  C 15.5313386194287 19.3460835678638  15.4561850536803 19.1089770258944  15.4561850536803 18.8619665571183  C 15.4561850536803 18.603739888282  15.5382973777413 18.3568591754257  15.6832837379092 18.1791666766827  C 19.3489583333333 13.6580128305288  19.3489583333333 6.34134615384615  15.6832837379092 1.82019230769231  C 15.538374087753 1.64250881644595  15.4563112812934 1.39569571434292  15.4563112812934 1.13754716641471  C 15.4563112812934 0.890617220992077  15.5314159875278 0.653581329208323  15.6654265950521 0.477564092548075  C 15.9526506935503 0.100512444691  16.4206826435552 0.0903889857955398  16.7175099283854 0.454807692307691  Z M 14.2318948335193 15.7532051382211  C 13.9321935042844 16.113914480884  13.4640888454891 16.0976573807765  13.179811500186 15.7166666766827  C 13.0491398127647 15.5412667521467  12.9761396360377 15.3072591851687  12.9761396360377 15.063781169714  C 12.9761396360377 14.8022215351735  13.0603497916658 14.5524541986932  13.2085813569568 14.374358984375  C 15.2135416666667 11.9522435997596  15.2135416666667 8.04743590745192  13.2085813569568 5.625  C 13.0603497916658 5.44690478568179  12.9761396360377 5.19713744920147  12.9761396360377 4.93557781466104  C 12.9761396360377 4.69209979920624  13.0491398127647 4.45809223222832  13.179811500186 4.2826923076923  C 13.4640888454891 3.90170160359845  13.9321935042844 3.88544450349101  14.2318948335193 4.24615384615384  C 16.8566468098958 7.41762821514423  16.8566468098958 12.5820512920673  14.2318948335193 15.7535256310096  Z " fill-rule="nonzero" fill="#ffffff" stroke="none" fill-opacity="0.996078431372549" />
  </g>
</svg>