<?xml version="1.0" encoding="utf-8"?>
<svg version="1.1" xmlns:xlink="http://www.w3.org/1999/xlink" width="20px" height="20px" xmlns="http://www.w3.org/2000/svg">
  <g transform="matrix(1 0 0 1 -1604 -952 )">
    <path d="M 19.7056686046512 9.14544025157233  C 19.988631283296 9.70129943019227  19.988631283296 10.3752204941395  19.7056686046512 10.9310796727594  L 15.5641957440044 19.0547693838443  C 15.2705882617288 19.6342664688377  14.708749658768 19.9950356614414  14.097868209484 19.9963312450865  L 5.87354651162791 19.9963312450865  C 5.2626650704868 19.9950356524937  4.70082647817176 19.6342664611382  4.40721899981831 19.0547693838443  L 0.265746116460755 10.9310796727594  C -0.0172165621840888 10.3752204941395  -0.017216562184088 9.70129943019227  0.265746116460755 9.14544025157232  L 4.40721899981831 1.02175051591981  C 4.70082648414062 0.44225344811551  5.26266507530176 0.0814842669143289  5.87354651162791 0.0801886792452798  L 14.097868209484 0.0801886792452807  C 14.708749653953 0.0814842579666372  15.2705882557599 0.442253440416053  15.5641957440044 1.02175051591981  L 19.7056686046512 9.14544025157233  Z M 14.2999030932049 18.2895702387972  L 18.434108534702 10.1658805031447  C 18.4744480441955 10.086488682944  18.4744480441955 9.99029327951667  18.434108534702 9.91090145931604  L 14.2999030932049 1.78721174823113  C 14.2581654791574 1.70440195617793  14.1780325531627 1.65277284018954  14.0908430232558 1.65251572327044  L 5.8805716978561 1.65251572327044  C 5.79338216794917 1.65277284018954  5.71324924195457 1.70440195617793  5.67151162790698 1.78721174823113  L 1.53730620912064 9.91090145931604  C 1.49696669962719 9.99029327951667  1.49696669962719 10.086488682944  1.53730620912064 10.1658805031447  L 5.67151162790698 18.2895702387972  C 5.71331305069648 18.3722787810577  5.79343362240773 18.4237995038654  5.8805716978561 18.4240042010613  L 14.0908430232558 18.4240042010613  C 14.1779810987042 18.4237995038654  14.2581016704154 18.3722787810577  14.2999030932049 18.2895702387972  Z M 13.7991763490189 9.93710691823899  C 13.7991763263081 12.2528826159591  12.0637112327398 14.1299790438286  9.92320737191134 14.1299790438286  C 7.78246125545058 14.1299790438286  6.04723837209302 12.2528826159591  6.04723837209302 9.93710691823899  C 6.04723837209302 7.62133122051887  7.78246123273983 5.74423479264937  9.92320737191134 5.74423479264937  C 12.0637112554506 5.74423479264937  13.7991763717296 7.62133122051887  13.7991763490189 9.93710691823899  Z M 7.50072674418605 9.93710691823899  C 7.50072674418605 11.3844339622642  8.58527132539971 12.5576519998035  9.92320737191134 12.5576519998035  C 11.261143418423 12.5576519998035  12.3456879996366 11.3844339622641  12.3456879769259 9.93710691823899  C 12.3456879542151 8.48977987421384  11.2611433957122 7.31656183667453  9.92320737191134 7.31656183667453  C 8.58527134811047 7.31656183667453  7.50072674418605 8.48977987421383  7.50072674418605 9.93710691823899  Z " fill-rule="nonzero" fill="#ffffff" stroke="none" fill-opacity="0.996078431372549" transform="matrix(1 0 0 1 1604 952 )" />
  </g>
</svg>