<?xml version="1.0" encoding="utf-8"?>
<svg version="1.1" xmlns:xlink="http://www.w3.org/1999/xlink" width="20px" height="20px" xmlns="http://www.w3.org/2000/svg">
  <g transform="matrix(1 0 0 1 -1643 -952 )">
    <path d="M 15.952380952381 2.22222221209491  L 4.04761904761905 2.22222221209491  C 2.95181597683843 2.22222221209491  2.06349207124256 3.21714498571455  2.06349207124256 4.44444442418981  C 2.06349207124256 4.44444442418981  2.06349207124256 4.44444445023148  2 4.44444445023148  L 2 15.5555555367477  C 2.06349207124256 15.5555555367477  2.06349207124256 15.5555555627894  2.06349207124256 15.5555555627894  C 2.06349207124256 16.7828550012646  2.95181597683843 17.7777777748843  4.04761904761905 17.7777777748843  L 8.01587302362351 17.7777777748843  C 8.56392644352231 17.7777777618634  9.00808840152526 18.2752391545029  9.00808840152526 18.8888888809317  C 9.00808840152526 19.5025386073606  8.56392644352231 20  8.01602490171127 20  L 4.04761904761905 19.9999999869792  C 1.85601289321637 19.9999999869792  0.0793650716145834 18.0101544280806  0 15.5555555367477  L 0 4.44444445023148  C 0.0793650716145834 1.98984555889853  1.85601289321637 0  4.04761904761905 0  L 15.9523809523809 0  C 18.1439871067836 0  19.9206349283854 1.98984555889853  19.9206349283854 4.44444445023148  L 19.9206349283854 7.77777778139468  C 19.9206349283854 8.39142750782352  19.4764729703825 8.88888890046296  18.9285714285714 8.88888890046296  C 18.3806698867604 8.88888890046296  17.9365079287574 8.39142750782352  17.9365079287574 7.77777778139468  L 17.9365079287574 4.44444445023148  C 17.9365079287574 3.21714498571455  17.0481840231616 2.22222221209491  15.9523809523809 2.22222221209491  Z M 16.9444444521949 11.1111111125579  L 12.9761904761905 11.1111111125579  C 11.3324858635988 11.1111111125579  10 12.603495278817  10 14.4444444437211  L 10 16.666666655816  C 10 18.5076158207201  11.3324858635988 19.9999999869792  12.9761904761905 19.9999999869792  L 16.9444444521949 19.9999999869792  C 18.5881490647866 19.9999999869792  19.9206349283854 18.5076158207201  19.9206349283854 16.666666655816  L 19.9206349283854 14.4444444437211  C 19.9206349283854 12.603495278817  18.5881490647866 11.1111111125579  16.9444444521949 11.1111111125579  Z " fill-rule="nonzero" fill="#ffffff" stroke="none" fill-opacity="0.996078431372549" transform="matrix(1 0 0 1 1643 952 )" />
  </g>
</svg>