<?xml version="1.0" encoding="utf-8"?>
<svg version="1.1" xmlns:xlink="http://www.w3.org/1999/xlink" width="20px" height="20px" xmlns="http://www.w3.org/2000/svg">
  <g transform="matrix(1 0 0 1 -1682 -952 )">
    <path d="M 8.57142857142857 13.3333333333333  L 4.6031746031746 17.3015873015873  L 6.71957672991072 17.3015873015873  L 6.71957672991072 19.947089936756  L 0.105820095486112 19.947089936756  L 0.105820095486112 13.3333333333333  L 2.75132276165675 13.3333333333333  L 2.75132276165675 15.4497354600694  L 6.71957672991072 11.4814814918155  L 8.57142857142857 13.3333333333333  Z M 13.3333333333333 17.3015873015873  L 15.3174603174603 17.3015873015873  L 11.3492063492063 13.3333333333333  L 13.2010581907242 11.4814814918155  L 17.3015873015873 15.5820105716766  L 17.3015873015873 13.3333333333333  L 19.947089936756 13.3333333333333  L 19.947089936756 19.947089936756  L 13.3333333333333 19.947089936756  L 13.3333333333333 17.3015873015873  Z M 6.71957672991072 2.75132276165675  L 4.6031746031746 2.75132276165675  L 8.57142857142857 6.71957672991072  L 6.71957672991071 8.57142857142857  L 2.75132276165674 4.6031746031746  L 2.75132276165674 6.71957672991072  L 0.105820095486112 6.71957672991072  L 0.105820095486112 0.105820095486112  L 6.71957672991072 0.105820095486112  L 6.71957672991072 2.75132276165675  Z M 11.3492063492063 6.71957672991071  L 15.3174603174603 2.75132276165675  L 13.3333333333333 2.75132276165675  L 13.3333333333333 0.105820095486112  L 19.947089936756 0.105820095486112  L 19.947089936756 6.71957672991072  L 17.3015873015873 6.71957672991072  L 17.3015873015873 4.47089946056548  L 13.2010581907242 8.57142857142857  L 11.3492063492063 6.71957672991071  Z " fill-rule="nonzero" fill="#ffffff" stroke="none" fill-opacity="0.996078431372549" transform="matrix(1 0 0 1 1682 952 )" />
  </g>
</svg>