<?xml version="1.0" encoding="utf-8"?>
<svg version="1.1" xmlns:xlink="http://www.w3.org/1999/xlink" width="20px" height="20px" xmlns="http://www.w3.org/2000/svg">
  <g>
    <path d="M 1.83734939759036 4.30288461538462  L 4.1315260965738 4.30288461538462  L 9.20431727692018 0.304807692307692  C 9.7921686746988 -0.158333323317309  10.566265060241 0.0669871694711529  10.933734939759 0.808012830528845  C 11.0584839278991 1.05961538461538  11.1244979998117 1.35032052283654  11 1.64679486177885  L 11 18.3532051382212  C 11.1244979998117 19.2275640925481  10.5625 19.9358974459135  9.86947790380271 19.9358974459135  C 9.63428713290663 19.9358974459135  9.40386544615964 19.8525641225962  9.20431727692018 19.6955128305288  L 4.1315260965738 15.6971153846154  L 1.83734939759036 15.6971153846154  C 0.866967879329819 15.6971153846154  0.0803212772966868 14.7051282151442  0.0803212772966868 13.4814102463942  L 0.0803212772966868 6.51858975360577  C 0.0803212772966868 5.29487181490385  0.866967855798193 4.30288461538462  1.83734939759036 4.30288461538462  Z M 10 2.21794870793269  L 4.74648595161898 6.0576923076923  C 4.62649882698492 6.15208743164731  4.48832091701225 6.20202400578838  4.34738956607681 6.20192307692308  L 1.83734939759036 6.20192307692308  C 1.69879518072289 6.20192307692308  1.58634537368223 6.34358975360577  1.58634537368223 6.51858975360577  L 1.58634537368223 13.4817307692308  C 1.58634537368223 13.6564102463942  1.69879518072289 13.7983974459135  1.83734939759036 13.7983974459135  L 4.34738956607681 13.7983974459135  C 4.4884538309488 13.7983974459135  4.62675703595633 13.8483974459135  4.74648595161898 13.9426282151442  L 10 17.7820512920673  L 10 2.21794870793269  Z M 17.6639056146461 10.1923076923077  L 19.6987951807229 12.7907051382211  C 19.8337551337672 12.9629961098886  19.9095776448909 13.1966983278529  19.9095776448909 13.4403846153846  C 19.9095776448909 13.9477532745036  19.5874724438883 14.3590568388607  19.1901355421687 14.3590568388607  C 18.9993583824483 14.3590568388607  18.8163923648011 14.2622995421569  18.6814759036145 14.0900640925481  L 16.6465863375376 11.4919871694712  L 14.6116967949925 14.0903846153846  C 14.4767803327244 14.2626200623911  14.2938143154825 14.3593773572981  14.1030371564383 14.3593773572981  C 13.7057002501232 14.3593773572981  13.3835950453953 13.9480737881841  13.3835950453953 13.4407051231971  C 13.3835950453953 13.1970188291661  13.4594175596801 12.9633166052796  13.594377517884 12.7910256310096  L 15.6292670604292 10.1926282151442  L 13.594377517884 7.59423076923077  C 13.456909988441 7.42154916237395  13.3794908588297 7.18562324635872  13.3794908588297 6.93938832742865  C 13.3794908588297 6.43206521516136  13.7015671442152 6.02079857382289  14.0988683767137 6.02079857382289  C 14.2917029517794 6.02079857382289  14.4764642113094 6.11965684701884  14.6116967949925 6.29519230769231  L 16.6465863375376 8.89358975360577  L 18.6814759036145 6.29519230769231  C 18.8167084872975 6.11965684701884  19.0014697468275 6.02079857382289  19.1943043218932 6.02079857382289  C 19.5916055543917 6.02079857382289  19.9136818397773 6.43206521516136  19.9136818397773 6.93938832742866  C 19.9136818397773 7.18562324635873  19.836262710166 7.42154916237395  19.6987951807229 7.59423076923077  L 17.6639056146461 10.1926282151442  Z " fill-rule="nonzero" fill="#ffffff" stroke="none" fill-opacity="0.996078431372549" />
  </g>
</svg>