<?xml version="1.0" encoding="utf-8"?>
<svg version="1.1" xmlns:xlink="http://www.w3.org/1999/xlink" width="14px" height="8px" xmlns="http://www.w3.org/2000/svg">
  <g transform="matrix(1 0 0 1 -1442 -1045 )">
    <path d="M 6.03986739259259 7.48558424444445  L 6.03878416296296 7.48558424444444  L 6.49699158518519 7.93187611111111  L 12.8122381037037 1.78669711851852  C 12.9325516824376 1.6698204338598  13.0004396903454 1.50922493884707  13.0004396903454 1.34148848888889  C 13.0004396903454 1.17375203893071  12.9325516824376 1.01315654391798  12.8122381037037 0.896279859259259  C 12.5577756578564 0.646625272160575  12.1502857051066 0.646625272160575  11.8958232592593 0.896279859259259  L 6.49807481481481 6.14562542222222  L 1.10574254074074 0.895196622222222  C 0.851412417214923 0.646249722850148  0.444741049451744 0.646249722850148  0.190410925925926 0.895196622222222  C 0.069095647443835 1.01218026309649  0.000565227389423799 1.17346590082315  0.000565227389423799 1.34199651829483  C 0.000565227389423799 1.50948011824152  0.0682493275121275 1.66985566779109  0.188244459259259 1.78669711851852  L 6.01386980740741 7.45958665925926  L 6.03986739259259 7.48558424444445  Z " fill-rule="nonzero" fill="#999999" stroke="none" transform="matrix(1 0 0 1 1442 1045 )" />
  </g>
</svg>